<svg width="561" height="140" viewBox="0 0 561 140" xmlns="http://www.w3.org/2000/svg" xmlns:sketch="http://www.bohemiancoding.com/sketch/ns"><title>logo</title><g sketch:type="MSLayerGroup" fill="#fff"><path d="M.176 119.216c0-6.041 4.697-11.121 10.393-11.121 4.349 0 8.145 2.866 8.145 5.987 0 1.307-.95 2.515-2.35 2.515-.799 0-1.798-.503-1.798-1.913 0-.705.401-1.307 1.2-1.711-.647-1.662-3.1-2.569-5.196-2.569-3.448 0-7.694 3.019-7.694 8.857 0 4.829 3.349 8.404 8.595 8.404 2.297 0 4.447-.755 6.797-2.367l-.25 2.618c-2.048 1.509-4.996 2.115-6.896 2.115-6.298.007-10.945-4.825-10.945-10.816zm38.032-8.705c0 1.159-.901 2.165-2.051 2.165-1.101 0-1.949-.804-2.248-1.711-1.65.453-3.599 2.466-4.697 4.68v11.674h4.099v2.317h-10.147v-2.317h3.497v-16.506h-3.497v-2.317h5.946v4.779c1.499-2.919 4.197-5.183 6.248-5.183 1.851.004 2.85 1.162 2.85 2.42zm4.848 9.158c.401 5.336 3.599 8.003 8.644 8.003 2.899 0 4.746-.907 7.248-2.367l-.25 2.618c-2.15 1.407-4.848 2.115-7.346 2.115-6.646 0-10.994-4.531-10.994-10.923 0-5.789 3.8-11.022 10.147-11.022 6.048 0 9.344 4.783 9.344 9.913 0 .755-.049 1.208-.148 1.658h-16.645v.004zm.053-2.264h14.143c-.299-4.127-2.6-6.994-6.998-6.994-3.648 0-6.646 2.714-7.146 6.994zm20.638 6.491c0-3.823 3.399-6.391 7.948-6.391 2.301 0 5.397.755 6.396 1.208v-3.522c0-1.205-.348-2.264-.999-3.019-.95-1.056-2.547-1.761-4.799-1.761-1.998 0-2.998.553-3.8 1.109.201.4.352.804.352 1.36 0 1.056-.749 1.913-1.9 1.913-1.2 0-1.949-.907-1.949-2.012 0-2.367 2.85-4.68 7.596-4.68 2.846 0 5.049.854 6.396 2.317 1.048 1.109 1.548 2.569 1.548 4.177v12.733h3.497v2.317h-5.847v-2.866c-1.749 1.81-4.546 3.27-7.395 3.27-4.243-.011-7.044-2.629-7.044-6.154zm14.344.404v-3.575c-1.699-.553-4.046-1.056-6.298-1.056-3.698 0-5.495 1.814-5.495 4.074 0 2.264 1.699 4.028 4.996 4.028 2.85 0 5.2-1.612 6.797-3.472zm12.694 3.422c-.348-.705-.5-1.711-.5-2.717v-14.189h-3.8v-2.317h3.8v-5.484l2.547-.907v6.391h6.498v2.317h-6.498v13.941c0 .705.099 1.258.299 1.711.401.755 1.2 1.109 2.6 1.109 1.2 0 2.698-.652 3.849-1.36l-.401 2.668c-.95.503-2.297 1.159-4.247 1.159-2.048-.004-3.448-.811-4.148-2.321zm15.494-8.053c.401 5.336 3.599 8.003 8.644 8.003 2.899 0 4.746-.907 7.248-2.367l-.25 2.618c-2.15 1.407-4.848 2.115-7.346 2.115-6.646 0-10.994-4.531-10.994-10.923 0-5.789 3.8-11.022 10.147-11.022 6.048 0 9.344 4.783 9.344 9.913 0 .755-.049 1.208-.148 1.658h-16.645v.004zm.049-2.264h14.143c-.299-4.127-2.6-6.994-6.998-6.994-3.645 0-6.646 2.714-7.146 6.994zm32.888 6.491c0-3.823 3.399-6.391 7.948-6.391 2.301 0 5.397.755 6.396 1.208v-3.522c0-1.205-.348-2.264-.999-3.019-.95-1.056-2.547-1.761-4.799-1.761-1.998 0-2.998.553-3.8 1.109.201.4.352.804.352 1.36 0 1.056-.749 1.913-1.9 1.913-1.2 0-1.949-.907-1.949-2.012 0-2.367 2.85-4.68 7.596-4.68 2.846 0 5.049.854 6.396 2.317 1.048 1.109 1.548 2.569 1.548 4.177v12.733h3.497v2.317h-5.847v-2.866c-1.749 1.81-4.546 3.27-7.395 3.27-4.247-.011-7.044-2.629-7.044-6.154zm14.34.404v-3.575c-1.699-.553-4.046-1.056-6.298-1.056-3.698 0-5.495 1.814-5.495 4.074 0 2.264 1.699 4.028 4.996 4.028 2.85 0 5.2-1.612 6.797-3.472zm15.646-11.624c1.949-2.515 5.147-4.581 8.095-4.581 2.85 0 4.648 1.006 5.647 2.717.7 1.205.999 2.717.999 4.478v12.028h3.497v2.317h-9.545v-2.317h3.497v-11.674c0-1.258-.151-2.264-.549-3.068-.7-1.41-1.998-2.062-3.947-2.062-2.998 0-5.647 1.913-7.596 4.329v12.481h3.497v2.317h-9.545v-2.317h3.497v-16.506h-3.497v-2.317h5.946v4.173h.004zm33.684 11.22c0-3.823 3.399-6.391 7.948-6.391 2.297 0 5.397.755 6.396 1.208v-3.522c0-1.205-.352-2.264-.999-3.019-.95-1.056-2.547-1.761-4.799-1.761-1.998 0-2.998.553-3.796 1.109.201.4.348.804.348 1.36 0 1.056-.749 1.913-1.9 1.913-1.2 0-1.949-.907-1.949-2.012 0-2.367 2.85-4.68 7.596-4.68 2.846 0 5.049.854 6.396 2.317 1.048 1.109 1.548 2.569 1.548 4.177v12.733h3.497v2.317h-5.847v-2.866c-1.749 1.81-4.546 3.27-7.395 3.27-4.243-.011-7.044-2.629-7.044-6.154zm14.344.404v-3.575c-1.699-.553-4.049-1.056-6.298-1.056-3.698 0-5.495 1.814-5.495 4.074 0 2.264 1.699 4.028 4.996 4.028 2.85 0 5.196-1.612 6.797-3.472zm8.595 12.882h3.497v-26.369h-3.497v-2.317h5.946v3.27c1.847-2.214 4.148-3.674 7.445-3.674 5.548 0 10.094 4.276 10.094 10.82 0 5.938-4 11.121-10.593 11.121-2.551 0-5.049-1.006-6.846-2.618v9.764h4.349v2.317h-10.393v-2.313zm20.793-18.217c.049-5.031-3.149-8.556-7.547-8.556-3.047 0-5.348 1.509-7.195 3.575v11.121c1.699 1.509 3.849 2.618 6.945 2.618 4.697 0 7.744-3.876 7.796-8.758zm6.846 18.217h3.497v-26.369h-3.497v-2.317h5.946v3.27c1.847-2.214 4.148-3.674 7.445-3.674 5.548 0 10.094 4.276 10.094 10.82 0 5.938-4 11.121-10.593 11.121-2.551 0-5.049-1.006-6.846-2.618v9.764h4.349v2.317h-10.393v-2.313zm20.789-18.217c.049-5.031-3.149-8.556-7.547-8.556-3.047 0-5.348 1.509-7.195 3.575v11.121c1.699 1.509 3.849 2.618 6.945 2.618 4.7 0 7.747-3.876 7.796-8.758zm10.097.705c.401 5.336 3.599 8.003 8.644 8.003 2.899 0 4.746-.907 7.248-2.367l-.25 2.618c-2.15 1.407-4.848 2.115-7.346 2.115-6.646 0-10.994-4.531-10.994-10.923 0-5.789 3.8-11.022 10.147-11.022 6.048 0 9.344 4.783 9.344 9.913 0 .755-.049 1.208-.151 1.658h-16.641v.004zm.049-2.264h14.143c-.299-4.127-2.6-6.994-6.998-6.994-3.645 0-6.646 2.714-7.146 6.994zm24.191 10.317c-.352-.705-.5-1.711-.5-2.717v-14.189h-3.8v-2.317h3.8v-5.484l2.547-.907v6.391h6.498v2.317h-6.498v13.941c0 .705.099 1.258.299 1.711.401.755 1.2 1.109 2.596 1.109 1.2 0 2.698-.652 3.849-1.36l-.401 2.668c-.95.503-2.301 1.159-4.247 1.159-2.044-.004-3.444-.811-4.144-2.321zm12.993-.404h3.698v-16.506h-3.698v-2.317h6.248v18.82h3.747v2.317h-9.995v-2.313zm2.199-27.677c0-1.307 1.048-2.416 2.347-2.416 1.249 0 2.301 1.109 2.301 2.416s-1.048 2.416-2.301 2.416c-1.295 0-2.347-1.109-2.347-2.416zm14.794 28.081c-.352-.705-.5-1.711-.5-2.717v-14.189h-3.8v-2.317h3.8v-5.484l2.547-.907v6.391h6.498v2.317h-6.498v13.941c0 .705.099 1.258.299 1.711.401.755 1.2 1.109 2.596 1.109 1.2 0 2.698-.652 3.849-1.36l-.401 2.668c-.95.503-2.301 1.159-4.247 1.159-2.048-.004-3.444-.811-4.144-2.321zm15.491-8.053c.401 5.336 3.599 8.003 8.644 8.003 2.899 0 4.75-.907 7.248-2.367l-.25 2.618c-2.15 1.407-4.848 2.115-7.346 2.115-6.646 0-10.994-4.531-10.994-10.923 0-5.789 3.796-11.022 10.143-11.022 6.048 0 9.348 4.783 9.348 9.913 0 .755-.049 1.208-.151 1.658h-16.641v.004zm.049-2.264h14.143c-.299-4.127-2.596-6.994-6.994-6.994-3.648 0-6.646 2.714-7.149 6.994zm42.032-22.596c-.749.099-1.4.404-1.9 1.01-.799.907-1.249 2.363-1.249 4.478v8.205h5.446v2.317h-5.446v16.506h4.099v2.317h-10.143v-2.317h3.497v-16.506h-3.796v-2.317h3.796v-7.397c0-3.22.552-5.435 2.002-6.894 1.101-1.109 2.396-1.81 4.349-1.81 2.048 0 3.497.907 3.497 2.515 0 1.159-.799 1.963-1.847 1.963-1.252-.004-2.002-.861-2.304-2.069zm5.4 24.258c0-6.09 4.299-10.972 10.646-10.972s10.646 4.882 10.646 10.972-4.299 10.972-10.646 10.972-10.646-4.886-10.646-10.972zm18.59 0c0-5.031-3.247-8.655-7.944-8.655s-7.948 3.624-7.948 8.655c0 5.084 3.247 8.655 7.948 8.655 4.697 0 7.944-3.575 7.944-8.655zm22.39-8.556c0 1.159-.901 2.165-2.048 2.165-1.101 0-1.949-.804-2.248-1.711-1.65.453-3.599 2.466-4.697 4.68v11.674h4.099v2.317h-10.143v-2.317h3.497v-16.506h-3.497v-2.317h5.946v4.779c1.499-2.919 4.197-5.183 6.248-5.183 1.844.004 2.843 1.162 2.843 2.42zm34.535 20.131c0 2.668-.7 4.631-1.9 6.037-1.851 2.214-4.897 3.022-8.099 3.022-3.149 0-5.446-.957-6.597-2.115-.7-.705-1.048-1.509-1.048-2.317 0-1.41.95-2.367 2.248-2.367 1.048 0 1.699.854 1.699 1.86 0 .556-.201 1.109-.602 1.662.5.4 2.1.957 4.598.957 2.199 0 4.398-.556 5.795-2.214.802-1.006 1.351-2.367 1.351-4.276v-4.627c-1.798 1.913-4.099 3.373-7.448 3.373-5.598 0-10.196-4.478-10.196-10.618 0-5.537 4.046-10.923 10.695-10.923 2.846 0 5.246 1.109 7.047 2.866v-2.466h5.949v2.317h-3.497v19.829h.004zm-17.493-11.677c0 4.73 3.198 8.354 7.645 8.354 3.1 0 5.446-1.509 7.297-3.575v-10.618c-1.699-1.509-3.898-2.717-7.047-2.717-4.746.004-7.895 3.979-7.895 8.556zm25.039.103c0-6.09 4.299-10.972 10.646-10.972s10.646 4.882 10.646 10.972-4.299 10.972-10.646 10.972-10.646-4.886-10.646-10.972zm18.59 0c0-5.031-3.247-8.655-7.944-8.655s-7.948 3.624-7.948 8.655c0 5.084 3.247 8.655 7.948 8.655 4.697 0 7.944-3.575 7.944-8.655zm7.501 0c0-6.09 4.299-10.972 10.646-10.972s10.646 4.882 10.646 10.972-4.299 10.972-10.646 10.972c-6.35 0-10.646-4.886-10.646-10.972zm18.587 0c0-5.031-3.247-8.655-7.944-8.655s-7.948 3.624-7.948 8.655c0 5.084 3.247 8.655 7.948 8.655 4.697 0 7.944-3.575 7.944-8.655zm7.501.149c0-5.938 3.997-11.121 10.593-11.121 2.547 0 4.996.957 6.846 2.717v-15.702h-4.349v-2.317h6.899v34.525h3.497v2.317h-5.949v-3.27c-1.847 2.214-4.148 3.674-7.448 3.674-5.545 0-10.09-4.28-10.09-10.823zm17.44 4.932v-11.022c-1.699-1.509-3.849-2.717-6.945-2.717-4.697 0-7.747 3.876-7.796 8.758-.049 5.031 3.149 8.556 7.547 8.556 3.047 0 5.344-1.509 7.195-3.575zM112 1.492h13.955v30.548h24.367v-30.548h13.955v76.599h-13.955v-33.306h-24.367v33.303h-13.955v-76.596zm132.128 51.68c0 14.698-11.668 26.414-26.083 26.414-14.987 0-26.198-11.254-26.198-26.414v-51.68h13.955v53.515c0 6.661 5.262 11.828 12.128 11.828 6.978 0 12.243-5.167 12.243-11.828v-53.515h13.955v51.68zm27.339-51.68h16.246l23.336 51.449v-51.449h12.699v76.599h-16.473l-23.111-50.301v50.301h-12.699v-76.599h.003zm131.329 51.564c0 15.045-11.326 26.529-26.083 26.529-14.987 0-26.198-11.369-26.198-26.529v-26.645c.003-14.811 11.668-26.411 26.543-26.411 12.355 0 21.735 7.463 24.712 19.522h-13.843c-2.173-4.48-5.949-6.777-11.096-6.777-7.323 0-12.355 4.708-12.355 11.713v30.433c0 3.329.687 5.398 2.745 7.466 2.632 2.87 6.179 4.477 9.837 4.477 6.751 0 11.783-5.167 11.783-11.943v-10.221h-11.783v-12.748h25.741v21.135h-.003zm44.042-20.442h8.122c5.377 0 9.153-3.903 9.153-9.304 0-5.856-4.693-10.564-10.639-10.564-5.262 0-9.38 3.788-10.182 9.304h-14.757c.457-13.322 10.182-22.049 24.709-22.049 8.009 0 14.642 2.524 18.875 7.235 3.891 4.019 5.949 9.301 5.949 14.471 0 5.972-2.29 10.911-7.552 16.193 5.607 4.824 8.696 11.254 8.696 18.258 0 13.666-11.096 23.428-26.428 23.428-15.444 0-25.741-9.304-25.968-23.428h14.415c1.601 6.777 5.834 10.68 12.013 10.68 6.636 0 12.013-5.282 12.013-11.943 0-5.628-3.891-9.532-9.495-9.532h-8.923v-12.748zm59.256-31.122h33.061c4.348 0 9.84 2.296 13.271 5.628 3.776 3.675 5.949 8.958 5.949 14.698v2.87c0 9.762-5.265 16.882-14.757 19.984l16.93 33.418h-15.556l-16.703-33.418h-8.236v33.418h-13.955v-76.599h-.003zm31.115 30.433c4.233 0 7.208-2.87 7.208-7.235v-2.87c0-4.365-2.862-7.581-6.866-7.581h-17.505v17.684h17.163v.003zM1 0v80h80v-80h-80zm35.645 33.645c0-7.035 5.563-12.544 12.654-12.544 5.891 0 10.363 3.545 11.782 9.272h-6.6c-1.036-2.127-2.836-3.218-5.291-3.218-3.491 0-5.89 2.236-5.89 5.564v2.136h-6.654v-1.21zm24.926 12.655c0 7.145-5.4 12.6-12.436 12.6-7.145 0-12.49-5.4-12.49-12.6v-2.719h6.654v3.592c0 1.581.327 2.563 1.309 3.545 1.255 1.363 2.945 2.127 4.691 2.127 3.218 0 5.618-2.454 5.618-5.672v-4.854h-5.618l-22.215.055v15.818h-6.654v-36.38h6.654v14.508l34.487-.055v10.036z" sketch:type="MSShapeGroup"/></g></svg>