<?xml version="1.0" encoding="UTF-8" standalone="no"?>
<svg viewBox="0 0 260 80" version="1.1" xmlns="http://www.w3.org/2000/svg" xmlns:xlink="http://www.w3.org/1999/xlink" xmlns:sketch="http://www.bohemiancoding.com/sketch/ns">
    <title>Untitled</title>
    <description>Created with Sketch (http://www.bohemiancoding.com/sketch)</description>
    <defs></defs>
    <g id="Page-1" stroke="none" stroke-width="1" fill="none" fill-rule="evenodd" sketch:type="MSPage">
        <g id="Shape-+-Shape" sketch:type="MSLayerGroup" fill="#FFFFFF">
            <path d="M96,16.5412766 L101.10245,16.5412766 L101.10245,27.627234 L110.01175,27.627234 L110.01175,16.5412766 L115.1142,16.5412766 L115.1142,44.3394043 L110.01175,44.3394043 L110.01175,32.2525957 L101.10245,32.2525957 L101.10245,44.338383 L96,44.338383 L96,16.5412766 L96,16.5412766 Z M144.309275,35.296 C144.309275,40.6301277 140.043225,44.8817021 134.772675,44.8817021 C129.293025,44.8817021 125.19405,40.797617 125.19405,35.296 L125.19405,16.5412766 L130.2965,16.5412766 L130.2965,35.9618723 C130.2965,38.379234 132.220425,40.2542979 134.73065,40.2542979 C137.281875,40.2542979 139.206825,38.379234 139.206825,35.9618723 L139.206825,16.5412766 L144.309275,16.5412766 L144.309275,35.296 L144.309275,35.296 Z M154.305075,16.5412766 L160.24495,16.5412766 L168.77705,35.2122553 L168.77705,16.5412766 L173.4203,16.5412766 L173.4203,44.3394043 L167.3974,44.3394043 L158.9473,26.0851064 L158.9473,44.3394043 L154.30405,44.3394043 L154.30405,16.5412766 L154.305075,16.5412766 Z M202.322225,35.2541277 C202.322225,40.7138723 198.181225,44.8817021 192.785625,44.8817021 C187.305975,44.8817021 183.207,40.7557447 183.207,35.2541277 L183.207,25.5846809 C183.208025,20.2097021 187.47305,16 192.9117,16 C197.428875,16 200.858525,18.7084255 201.947075,23.0845957 L196.885625,23.0845957 C196.09125,21.4587234 194.710575,20.6253617 192.828675,20.6253617 C190.151375,20.6253617 188.3115,22.3339574 188.3115,24.8759149 L188.3115,35.92 C188.3115,37.1281702 188.562625,37.8788085 189.314975,38.6294468 C190.27745,39.6711489 191.574075,40.2542979 192.9117,40.2542979 C195.3799,40.2542979 197.219775,38.379234 197.219775,35.92 L197.219775,32.2107234 L192.9117,32.2107234 L192.9117,27.5843404 L202.32325,27.5843404 L202.32325,35.2541277 L202.322225,35.2541277 Z M218.424975,27.8355745 L221.3944,27.8355745 C223.36035,27.8355745 224.741025,26.4190638 224.741025,24.459234 C224.741025,22.3339574 223.025175,20.6253617 220.85115,20.6253617 C218.927225,20.6253617 217.4215,22 217.12835,24.0017021 L211.73275,24.0017021 C211.899825,19.1669787 215.45555,16 220.7671,16 C223.695525,16 226.120675,16.9160851 227.668425,18.6257021 C229.091125,20.0840851 229.843475,22.0010213 229.843475,23.8771064 C229.843475,26.0442553 229.00605,27.8365957 227.082125,29.7535319 C229.132125,31.504 230.261675,33.837617 230.261675,36.3795745 C230.261675,41.3388936 226.204725,44.8817021 220.599,44.8817021 C214.952275,44.8817021 211.18745,41.5053617 211.104425,36.3795745 L216.374975,36.3795745 C216.96025,38.8388085 218.508,40.2553191 220.7671,40.2553191 C223.193275,40.2553191 225.159225,38.338383 225.159225,35.9210213 C225.159225,33.8784681 223.736525,32.4619574 221.68755,32.4619574 L218.424975,32.4619574 L218.424975,27.8355745 L218.424975,27.8355745 Z M240.0904,16.5412766 L252.178225,16.5412766 C253.768,16.5412766 255.775975,17.3746383 257.030575,18.5838298 C258.41125,19.917617 259.205625,21.8345532 259.205625,23.9179574 L259.205625,24.9596596 C259.205625,28.5024681 257.280675,31.0862979 253.810025,32.2117447 L260,44.3394043 L254.312275,44.3394043 L248.205325,32.2117447 L245.193875,32.2117447 L245.193875,44.3394043 L240.091425,44.3394043 L240.091425,16.5412766 L240.0904,16.5412766 Z M251.466875,27.5853617 C253.014625,27.5853617 254.10215,26.5436596 254.10215,24.9596596 L254.10215,23.9179574 C254.10215,22.3339574 253.055625,21.1666383 251.591925,21.1666383 L245.191825,21.1666383 L245.191825,27.5843404 L251.466875,27.5843404 L251.466875,27.5853617 Z M96.41,57.7508085 C96.41,56.0095319 97.778375,54.5450213 99.43785,54.5450213 C100.70475,54.5450213 101.810725,55.371234 101.810725,56.2709787 C101.810725,56.6478298 101.533975,56.9960851 101.126025,56.9960851 C100.89335,56.9960851 100.60225,56.8510638 100.60225,56.4445957 C100.60225,56.2413617 100.7191,56.0677447 100.951775,55.9513191 C100.763175,55.4723404 100.04875,55.2108936 99.43785,55.2108936 C98.43335,55.2108936 97.196175,56.0810213 97.196175,57.7640851 C97.196175,59.1560851 98.171975,60.1865532 99.70025,60.1865532 C100.369575,60.1865532 100.99585,59.9690213 101.68055,59.5043404 L101.607775,60.2590638 C101.011225,60.6941277 100.152275,60.868766 99.598775,60.868766 C97.764025,60.8708085 96.41,59.4777872 96.41,57.7508085 L96.41,57.7508085 Z M107.49025,55.2415319 C107.49025,55.5754894 107.22785,55.8655319 106.892675,55.8655319 C106.57185,55.8655319 106.324825,55.6337021 106.2377,55.3722553 C105.756975,55.5029787 105.189125,56.0830638 104.869325,56.7213617 L104.869325,60.0864681 L106.06345,60.0864681 L106.06345,60.754383 L103.10735,60.754383 L103.10735,60.0864681 L104.1262,60.0864681 L104.1262,55.3283404 L103.10735,55.3283404 L103.10735,54.6604255 L104.8396,54.6604255 L104.8396,56.0381277 C105.27625,55.1965957 106.062425,54.544 106.66,54.544 C107.19915,54.5450213 107.49025,54.8789787 107.49025,55.2415319 L107.49025,55.2415319 Z M108.9027,57.8815319 C109.01955,59.4195745 109.951275,60.1885957 111.421125,60.1885957 C112.265725,60.1885957 112.80385,59.9271489 113.532625,59.506383 L113.45985,60.2611064 C112.833575,60.6665532 112.0474,60.8708085 111.31965,60.8708085 C109.383425,60.8708085 108.116525,59.5645957 108.116525,57.7222128 C108.116525,56.0534468 109.223525,54.5450213 111.072625,54.5450213 C112.8346,54.5450213 113.795025,55.9237447 113.795025,57.4025532 C113.795025,57.6200851 113.780675,57.7508085 113.751975,57.8805106 L108.9027,57.8805106 L108.9027,57.8815319 Z M108.918075,57.2289362 L113.038575,57.2289362 C112.95145,56.0391489 112.2811,55.2129362 110.99985,55.2129362 C109.936925,55.2129362 109.063625,55.995234 108.918075,57.2289362 L108.918075,57.2289362 Z M114.930725,59.0999149 C114.930725,57.9979574 115.920875,57.2575319 117.2462,57.2575319 C117.91655,57.2575319 118.81855,57.4750638 119.10965,57.6057872 L119.10965,56.5906383 C119.10965,56.2434043 119.008175,55.9380426 118.81855,55.7205106 C118.5418,55.4161702 118.07645,55.2129362 117.42045,55.2129362 C116.83825,55.2129362 116.54715,55.3722553 116.31345,55.5325957 C116.371875,55.648 116.41595,55.7644255 116.41595,55.924766 C116.41595,56.2291064 116.197625,56.4762553 115.86245,56.4762553 C115.512925,56.4762553 115.2946,56.2148085 115.2946,55.8961702 C115.2946,55.2139574 116.12485,54.5470638 117.507575,54.5470638 C118.3368,54.5470638 118.97845,54.7931915 119.371025,55.2149787 C119.676475,55.5346383 119.822025,55.9554043 119.822025,56.4190638 L119.822025,60.0895319 L120.840875,60.0895319 L120.840875,60.7574468 L119.137325,60.7574468 L119.137325,59.931234 C118.6279,60.4531064 117.813025,60.8738723 116.982775,60.8738723 C115.746625,60.8708085 114.930725,60.1160851 114.930725,59.0999149 L114.930725,59.0999149 Z M119.10965,59.2163404 L119.10965,58.1858723 C118.614575,58.0265532 117.9309,57.8815319 117.2749,57.8815319 C116.197625,57.8815319 115.67385,58.4044255 115.67385,59.056 C115.67385,59.7085957 116.168925,60.2171915 117.12935,60.2171915 C117.9596,60.2171915 118.6443,59.7525106 119.10965,59.2163404 L119.10965,59.2163404 Z M122.80785,60.2028936 C122.706375,59.9996596 122.6623,59.709617 122.6623,59.4195745 L122.6623,55.3293617 L121.5553,55.3293617 L121.5553,54.6614468 L122.6623,54.6614468 L122.6623,53.0805106 L123.4044,52.8190638 L123.4044,54.6614468 L125.297575,54.6614468 L125.297575,55.3293617 L123.4044,55.3293617 L123.4044,59.3480851 C123.4044,59.5513191 123.4331,59.7106383 123.491525,59.8413617 C123.608375,60.0588936 123.84105,60.1610213 124.249,60.1610213 C124.598525,60.1610213 125.035175,59.9731064 125.37035,59.7688511 L125.2535,60.5378723 C124.97675,60.6828936 124.584175,60.8718298 124.016325,60.8718298 C123.419775,60.8708085 123.011825,60.6379574 122.80785,60.2028936 L122.80785,60.2028936 Z M127.32195,57.8815319 C127.4388,59.4195745 128.370525,60.1885957 129.840375,60.1885957 C130.684975,60.1885957 131.2231,59.9271489 131.951875,59.506383 L131.8791,60.2611064 C131.252825,60.6665532 130.46665,60.8708085 129.7389,60.8708085 C127.802675,60.8708085 126.535775,59.5645957 126.535775,57.7222128 C126.535775,56.0534468 127.642775,54.5450213 129.491875,54.5450213 C131.25385,54.5450213 132.214275,55.9237447 132.214275,57.4025532 C132.214275,57.6200851 132.199925,57.7508085 132.171225,57.8805106 L127.32195,57.8805106 L127.32195,57.8815319 Z M127.3363,57.2289362 L131.4568,57.2289362 C131.369675,56.0391489 130.699325,55.2129362 129.418075,55.2129362 C128.356175,55.2129362 127.48185,55.995234 127.3363,57.2289362 L127.3363,57.2289362 Z M136.918,59.0999149 C136.918,57.9979574 137.90815,57.2575319 139.233475,57.2575319 C139.903825,57.2575319 140.805825,57.4750638 141.096925,57.6057872 L141.096925,56.5906383 C141.096925,56.2434043 140.99545,55.9380426 140.805825,55.7205106 C140.529075,55.4161702 140.063725,55.2129362 139.407725,55.2129362 C138.825525,55.2129362 138.534425,55.3722553 138.300725,55.5325957 C138.35915,55.648 138.403225,55.7644255 138.403225,55.924766 C138.403225,56.2291064 138.1849,56.4762553 137.849725,56.4762553 C137.5002,56.4762553 137.281875,56.2148085 137.281875,55.8961702 C137.281875,55.2139574 138.112125,54.5470638 139.49485,54.5470638 C140.324075,54.5470638 140.965725,54.7931915 141.3583,55.2149787 C141.66375,55.5346383 141.8093,55.9554043 141.8093,56.4190638 L141.8093,60.0895319 L142.82815,60.0895319 L142.82815,60.7574468 L141.1246,60.7574468 L141.1246,59.931234 C140.615175,60.4531064 139.8003,60.8738723 138.97005,60.8738723 C137.732875,60.8708085 136.918,60.1160851 136.918,59.0999149 L136.918,59.0999149 Z M141.0959,59.2163404 L141.0959,58.1858723 C140.600825,58.0265532 139.91715,57.8815319 139.26115,57.8815319 C138.183875,57.8815319 137.6601,58.4044255 137.6601,59.056 C137.6601,59.7085957 138.155175,60.2171915 139.1156,60.2171915 C139.94585,60.2171915 140.63055,59.7525106 141.0959,59.2163404 L141.0959,59.2163404 Z M145.654075,55.8655319 C146.221925,55.1404255 147.15365,54.5450213 148.0126,54.5450213 C148.84285,54.5450213 149.366625,54.8350638 149.657725,55.3283404 C149.8617,55.6755745 149.948825,56.1116596 149.948825,56.619234 L149.948825,60.0864681 L150.967675,60.0864681 L150.967675,60.754383 L148.18685,60.754383 L148.18685,60.0864681 L149.2057,60.0864681 L149.2057,56.7213617 C149.2057,56.3588085 149.161625,56.068766 149.0458,55.8369362 C148.841825,55.4304681 148.4636,55.2425532 147.89575,55.2425532 C147.02245,55.2425532 146.250625,55.7940426 145.682775,56.4905532 L145.682775,60.0885106 L146.701625,60.0885106 L146.701625,60.7564255 L143.9208,60.7564255 L143.9208,60.0885106 L144.93965,60.0885106 L144.93965,55.330383 L143.9208,55.330383 L143.9208,54.6624681 L145.65305,54.6624681 L145.65305,55.8655319 L145.654075,55.8655319 Z M155.467425,59.0999149 C155.467425,57.9979574 156.457575,57.2575319 157.7829,57.2575319 C158.452225,57.2575319 159.35525,57.4750638 159.64635,57.6057872 L159.64635,56.5906383 C159.64635,56.2434043 159.54385,55.9380426 159.35525,55.7205106 C159.0785,55.4161702 158.61315,55.2129362 157.95715,55.2129362 C157.37495,55.2129362 157.08385,55.3722553 156.851175,55.5325957 C156.9096,55.648 156.95265,55.7644255 156.95265,55.924766 C156.95265,56.2291064 156.734325,56.4762553 156.39915,56.4762553 C156.049625,56.4762553 155.8313,56.2148085 155.8313,55.8961702 C155.8313,55.2139574 156.66155,54.5470638 158.044275,54.5470638 C158.8735,54.5470638 159.51515,54.7931915 159.907725,55.2149787 C160.213175,55.5346383 160.358725,55.9554043 160.358725,56.4190638 L160.358725,60.0895319 L161.377575,60.0895319 L161.377575,60.7574468 L159.674025,60.7574468 L159.674025,59.931234 C159.1646,60.4531064 158.349725,60.8738723 157.519475,60.8738723 C156.283325,60.8708085 155.467425,60.1160851 155.467425,59.0999149 L155.467425,59.0999149 Z M159.64635,59.2163404 L159.64635,58.1858723 C159.151275,58.0265532 158.466575,57.8815319 157.8116,57.8815319 C156.734325,57.8815319 156.21055,58.4044255 156.21055,59.056 C156.21055,59.7085957 156.705625,60.2171915 157.66605,60.2171915 C158.4963,60.2171915 159.179975,59.7525106 159.64635,59.2163404 L159.64635,59.2163404 Z M162.150425,62.9297021 L163.169275,62.9297021 L163.169275,55.3283404 L162.150425,55.3283404 L162.150425,54.6604255 L163.882675,54.6604255 L163.882675,55.6030638 C164.4208,54.964766 165.09115,54.544 166.051575,54.544 C167.668,54.544 168.9923,55.7766809 168.9923,57.6629787 C168.9923,59.3746383 167.826875,60.868766 165.906025,60.868766 C165.1629,60.868766 164.43515,60.5787234 163.911375,60.1140426 L163.911375,62.9286809 L165.178275,62.9286809 L165.178275,63.5965957 L162.150425,63.5965957 L162.150425,62.9297021 L162.150425,62.9297021 Z M168.208175,57.6782979 C168.222525,56.2280851 167.2908,55.2119149 166.00955,55.2119149 C165.1219,55.2119149 164.45155,55.6469787 163.913425,56.242383 L163.913425,59.4481702 C164.4085,59.883234 165.034775,60.2028936 165.936775,60.2028936 C167.30515,60.2028936 168.1928,59.085617 168.208175,57.6782979 L168.208175,57.6782979 Z M170.202825,62.9297021 L171.221675,62.9297021 L171.221675,55.3283404 L170.202825,55.3283404 L170.202825,54.6604255 L171.935075,54.6604255 L171.935075,55.6030638 C172.4732,54.964766 173.14355,54.544 174.103975,54.544 C175.7204,54.544 177.0447,55.7766809 177.0447,57.6629787 C177.0447,59.3746383 175.879275,60.868766 173.958425,60.868766 C173.2153,60.868766 172.48755,60.5787234 171.963775,60.1140426 L171.963775,62.9286809 L173.230675,62.9286809 L173.230675,63.5965957 L170.202825,63.5965957 L170.202825,62.9297021 L170.202825,62.9297021 Z M176.25955,57.6782979 C176.2739,56.2280851 175.342175,55.2119149 174.060925,55.2119149 C173.173275,55.2119149 172.502925,55.6469787 171.9648,56.242383 L171.9648,59.4481702 C172.459875,59.883234 173.08615,60.2028936 173.98815,60.2028936 C175.35755,60.2028936 176.2452,59.085617 176.25955,57.6782979 L176.25955,57.6782979 Z M179.2013,57.8815319 C179.31815,59.4195745 180.249875,60.1885957 181.719725,60.1885957 C182.564325,60.1885957 183.10245,59.9271489 183.831225,59.506383 L183.75845,60.2611064 C183.132175,60.6665532 182.346,60.8708085 181.61825,60.8708085 C179.682025,60.8708085 178.415125,59.5645957 178.415125,57.7222128 C178.415125,56.0534468 179.522125,54.5450213 181.371225,54.5450213 C183.1332,54.5450213 184.093625,55.9237447 184.093625,57.4025532 C184.093625,57.6200851 184.079275,57.7508085 184.04955,57.8805106 L179.2013,57.8805106 L179.2013,57.8815319 Z M179.21565,57.2289362 L183.33615,57.2289362 C183.249025,56.0391489 182.578675,55.2129362 181.297425,55.2129362 C180.235525,55.2129362 179.3612,55.995234 179.21565,57.2289362 L179.21565,57.2289362 Z M186.26355,60.2028936 C186.16105,59.9996596 186.118,59.709617 186.118,59.4195745 L186.118,55.3293617 L185.011,55.3293617 L185.011,54.6614468 L186.118,54.6614468 L186.118,53.0805106 L186.8601,52.8190638 L186.8601,54.6614468 L188.753275,54.6614468 L188.753275,55.3293617 L186.8601,55.3293617 L186.8601,59.3480851 C186.8601,59.5513191 186.8888,59.7106383 186.947225,59.8413617 C187.064075,60.0588936 187.29675,60.1610213 187.703675,60.1610213 C188.0532,60.1610213 188.48985,59.9731064 188.825025,59.7688511 L188.708175,60.5378723 C188.431425,60.6828936 188.037825,60.8718298 187.471,60.8718298 C186.875475,60.8708085 186.467525,60.6379574 186.26355,60.2028936 L186.26355,60.2028936 Z M190.048875,60.0864681 L191.12615,60.0864681 L191.12615,55.3283404 L190.048875,55.3283404 L190.048875,54.6604255 L191.869275,54.6604255 L191.869275,60.0854468 L192.9609,60.0854468 L192.9609,60.7533617 L190.048875,60.7533617 L190.048875,60.0864681 L190.048875,60.0864681 Z M190.6895,52.1082553 C190.6895,51.7314043 190.99495,51.4117447 191.373175,51.4117447 C191.73705,51.4117447 192.043525,51.7314043 192.043525,52.1082553 C192.043525,52.4851064 191.738075,52.804766 191.373175,52.804766 C190.995975,52.804766 190.6895,52.4851064 190.6895,52.1082553 L190.6895,52.1082553 Z M194.999625,60.2028936 C194.897125,59.9996596 194.854075,59.709617 194.854075,59.4195745 L194.854075,55.3293617 L193.747075,55.3293617 L193.747075,54.6614468 L194.854075,54.6614468 L194.854075,53.0805106 L195.596175,52.8190638 L195.596175,54.6614468 L197.48935,54.6614468 L197.48935,55.3293617 L195.596175,55.3293617 L195.596175,59.3480851 C195.596175,59.5513191 195.624875,59.7106383 195.6833,59.8413617 C195.80015,60.0588936 196.032825,60.1610213 196.43975,60.1610213 C196.789275,60.1610213 197.225925,59.9731064 197.5611,59.7688511 L197.44425,60.5378723 C197.1675,60.6828936 196.7739,60.8718298 196.207075,60.8718298 C195.610525,60.8708085 195.2036,60.6379574 194.999625,60.2028936 L194.999625,60.2028936 Z M199.5127,57.8815319 C199.62955,59.4195745 200.561275,60.1885957 202.031125,60.1885957 C202.875725,60.1885957 203.414875,59.9271489 204.142625,59.506383 L204.06985,60.2611064 C203.443575,60.6665532 202.6574,60.8708085 201.92965,60.8708085 C199.993425,60.8708085 198.726525,59.5645957 198.726525,57.7222128 C198.726525,56.0534468 199.8325,54.5450213 201.6816,54.5450213 C203.443575,54.5450213 204.405025,55.9237447 204.405025,57.4025532 C204.405025,57.6200851 204.390675,57.7508085 204.36095,57.8805106 L199.5127,57.8805106 L199.5127,57.8815319 Z M199.52705,57.2289362 L203.64755,57.2289362 C203.560425,56.0391489 202.8911,55.2129362 201.60985,55.2129362 C200.546925,55.2129362 199.673625,55.995234 199.52705,57.2289362 L199.52705,57.2289362 Z M211.772725,50.715234 C211.5544,50.7438298 211.364775,50.8316596 211.219225,51.0062979 C210.98655,51.2677447 210.85535,51.6874894 210.85535,52.2971915 L210.85535,54.6624681 L212.44205,54.6624681 L212.44205,55.330383 L210.85535,55.330383 L210.85535,60.0885106 L212.049475,60.0885106 L212.049475,60.7564255 L209.0944,60.7564255 L209.0944,60.0885106 L210.11325,60.0885106 L210.11325,55.330383 L209.007275,55.330383 L209.007275,54.6624681 L210.11325,54.6624681 L210.11325,52.5300426 C210.11325,51.6017021 210.274175,50.9634043 210.696475,50.5426383 C211.0173,50.2229787 211.3945,50.020766 211.963375,50.020766 C212.559925,50.020766 212.982225,50.2822128 212.982225,50.7458723 C212.982225,51.0798298 212.74955,51.3116596 212.4441,51.3116596 C212.0792,51.3106383 211.860875,51.0634894 211.772725,50.715234 L211.772725,50.715234 Z M213.3461,57.7079149 C213.3461,55.9523404 214.59865,54.5450213 216.44775,54.5450213 C218.29685,54.5450213 219.5494,55.9523404 219.5494,57.7079149 C219.5494,59.4634894 218.29685,60.8708085 216.44775,60.8708085 C214.59865,60.8708085 213.3461,59.4624681 213.3461,57.7079149 L213.3461,57.7079149 Z M218.7622,57.7079149 C218.7622,56.2577021 217.816125,55.2129362 216.44775,55.2129362 C215.079375,55.2129362 214.132275,56.2577021 214.132275,57.7079149 C214.132275,59.1734468 215.07835,60.2028936 216.44775,60.2028936 C217.816125,60.2028936 218.7622,59.1724255 218.7622,57.7079149 L218.7622,57.7079149 Z M225.2853,55.2415319 C225.2853,55.5754894 225.0229,55.8655319 224.68875,55.8655319 C224.367925,55.8655319 224.1209,55.6337021 224.033775,55.3722553 C223.55305,55.5029787 222.9852,56.0830638 222.6654,56.7213617 L222.6654,60.0864681 L223.859525,60.0864681 L223.859525,60.754383 L220.90445,60.754383 L220.90445,60.0864681 L221.9233,60.0864681 L221.9233,55.3283404 L220.90445,55.3283404 L220.90445,54.6604255 L222.6367,54.6604255 L222.6367,56.0381277 C223.07335,55.1965957 223.859525,54.544 224.4571,54.544 C224.9942,54.5450213 225.2853,54.8789787 225.2853,55.2415319 L225.2853,55.2415319 Z M235.3467,61.0444255 C235.3467,61.8134468 235.142725,62.379234 234.7932,62.7846809 C234.25405,63.4229787 233.3664,63.6558298 232.43365,63.6558298 C231.516275,63.6558298 230.84695,63.3800851 230.511775,63.0461277 C230.3078,62.8428936 230.206325,62.6110638 230.206325,62.3782128 C230.206325,61.9717447 230.483075,61.696 230.8613,61.696 C231.16675,61.696 231.356375,61.9421277 231.356375,62.2321702 C231.356375,62.3925106 231.29795,62.5518298 231.1811,62.7111489 C231.32665,62.8265532 231.793025,62.9868936 232.520775,62.9868936 C233.1614,62.9868936 233.802025,62.8265532 234.20895,62.3485957 C234.44265,62.0585532 234.60255,61.666383 234.60255,61.1159149 L234.60255,59.7821277 C234.078775,60.333617 233.408425,60.754383 232.432625,60.754383 C230.80185,60.754383 229.462175,59.4634894 229.462175,57.693617 C229.462175,56.0973617 230.640925,54.5450213 232.578175,54.5450213 C233.4074,54.5450213 234.10645,54.8646809 234.63125,55.371234 L234.63125,54.6604255 L236.364525,54.6604255 L236.364525,55.3283404 L235.345675,55.3283404 L235.345675,61.0444255 L235.3467,61.0444255 Z M230.2504,57.6782979 C230.2504,59.0417021 231.182125,60.0864681 232.477725,60.0864681 C233.38075,60.0864681 234.064425,59.6514043 234.603575,59.056 L234.603575,55.995234 C234.1085,55.5601702 233.467875,55.2119149 232.5505,55.2119149 C231.167775,55.2129362 230.2504,56.3588085 230.2504,57.6782979 L230.2504,57.6782979 Z M237.545325,57.7079149 C237.545325,55.9523404 238.797875,54.5450213 240.646975,54.5450213 C242.496075,54.5450213 243.748625,55.9523404 243.748625,57.7079149 C243.748625,59.4634894 242.496075,60.8708085 240.646975,60.8708085 C238.797875,60.8708085 237.545325,59.4624681 237.545325,57.7079149 L237.545325,57.7079149 Z M242.961425,57.7079149 C242.961425,56.2577021 242.01535,55.2129362 240.646975,55.2129362 C239.2786,55.2129362 238.3315,56.2577021 238.3315,57.7079149 C238.3315,59.1734468 239.277575,60.2028936 240.646975,60.2028936 C242.01535,60.2028936 242.961425,59.1724255 242.961425,57.7079149 L242.961425,57.7079149 Z M245.146725,57.7079149 C245.146725,55.9523404 246.399275,54.5450213 248.248375,54.5450213 C250.097475,54.5450213 251.350025,55.9523404 251.350025,57.7079149 C251.350025,59.4634894 250.097475,60.8708085 248.248375,60.8708085 C246.39825,60.8708085 245.146725,59.4624681 245.146725,57.7079149 L245.146725,57.7079149 Z M250.5618,57.7079149 C250.5618,56.2577021 249.615725,55.2129362 248.24735,55.2129362 C246.878975,55.2129362 245.931875,56.2577021 245.931875,57.7079149 C245.931875,59.1734468 246.87795,60.2028936 248.24735,60.2028936 C249.615725,60.2028936 250.5618,59.1724255 250.5618,57.7079149 L250.5618,57.7079149 Z M252.7471,57.7508085 C252.7471,56.0391489 253.9115,54.5450213 255.833375,54.5450213 C256.575475,54.5450213 257.288875,54.820766 257.828025,55.3283404 L257.828025,50.8020426 L256.561125,50.8020426 L256.561125,50.1341277 L258.57115,50.1341277 L258.57115,60.0864681 L259.59,60.0864681 L259.59,60.754383 L257.856725,60.754383 L257.856725,59.8117447 C257.3186,60.4500426 256.64825,60.8708085 255.6868,60.8708085 C254.0714,60.8708085 252.7471,59.6371064 252.7471,57.7508085 L252.7471,57.7508085 Z M257.828025,59.1724255 L257.828025,55.995234 C257.33295,55.5601702 256.706675,55.2119149 255.804675,55.2119149 C254.4363,55.2119149 253.547625,56.3291915 253.533275,57.7365106 C253.518925,59.1867234 254.45065,60.2028936 255.7319,60.2028936 C256.61955,60.2028936 257.288875,59.7678298 257.828025,59.1724255 L257.828025,59.1724255 Z" id="Shape" sketch:type="MSShapeGroup"></path>
            <path d="M0,0 L0,80 L80,80 L80,0 L0,0 L0,0 Z M35.6446281,33.6449587 C35.6446281,26.6095868 41.2072727,21.1008264 48.2981818,21.1008264 C54.1890909,21.1008264 58.661157,24.6456198 60.08,30.3732231 L53.4796694,30.3732231 C52.4436364,28.2459504 50.6436364,27.1550413 48.1887603,27.1550413 C44.6978512,27.1550413 42.298843,29.3910744 42.298843,32.7186777 L42.298843,34.854876 L35.6446281,34.854876 L35.6446281,33.6449587 L35.6446281,33.6449587 Z M60.5705785,46.2995041 C60.5705785,53.4442975 55.1702479,58.8991736 48.134876,58.8991736 C40.9894215,58.8991736 35.6446281,53.498843 35.6446281,46.2995041 L35.6446281,43.5801653 L42.298843,43.5801653 L42.298843,47.1722314 C42.298843,48.7533884 42.6261157,49.7355372 43.6076033,50.717686 C44.8624793,52.0809917 46.5530579,52.8442975 48.2985124,52.8442975 C51.5166942,52.8442975 53.9166942,50.3904132 53.9166942,47.1722314 L53.9166942,42.3180165 L48.2985124,42.3180165 L48.2985124,42.317686 L26.0839669,42.372562 L26.0839669,58.1904132 L19.4297521,58.1904132 L19.4297521,21.8099174 L26.0839669,21.8099174 L26.0839669,36.3183471 L60.5709091,36.2631405 L60.5709091,46.2995041 L60.5705785,46.2995041 Z" id="Shape" sketch:type="MSShapeGroup"></path>
        </g>
    </g>
</svg>
