<?xml version="1.0" encoding="UTF-8" standalone="no"?>
<svg width="80px" height="80px" viewBox="0 0 80 80" version="1.1" xmlns="http://www.w3.org/2000/svg" xmlns:xlink="http://www.w3.org/1999/xlink" xmlns:sketch="http://www.bohemiancoding.com/sketch/ns">
    <title>Untitled 2</title>
    <description>Created with Sketch (http://www.bohemiancoding.com/sketch)</description>
    <defs></defs>
    <g id="Page-1" stroke="none" stroke-width="1" fill="none" fill-rule="evenodd" sketch:type="MSPage">
        <path d="M0,0 L0,80 L80,80 L80,0 L0,0 L0,0 Z M35.6446281,33.6449587 C35.6446281,26.6095868 41.2072727,21.1008264 48.2981818,21.1008264 C54.1890909,21.1008264 58.661157,24.6456198 60.08,30.3732231 L53.4796694,30.3732231 C52.4436364,28.2459504 50.6436364,27.1550413 48.1887603,27.1550413 C44.6978512,27.1550413 42.298843,29.3910744 42.298843,32.7186777 L42.298843,34.854876 L35.6446281,34.854876 L35.6446281,33.6449587 L35.6446281,33.6449587 Z M60.5705785,46.2995041 C60.5705785,53.4442975 55.1702479,58.8991736 48.134876,58.8991736 C40.9894215,58.8991736 35.6446281,53.498843 35.6446281,46.2995041 L35.6446281,43.5801653 L42.298843,43.5801653 L42.298843,47.1722314 C42.298843,48.7533884 42.6261157,49.7355372 43.6076033,50.717686 C44.8624793,52.0809917 46.5530579,52.8442975 48.2985124,52.8442975 C51.5166942,52.8442975 53.9166942,50.3904132 53.9166942,47.1722314 L53.9166942,42.3180165 L48.2985124,42.3180165 L48.2985124,42.317686 L26.0839669,42.372562 L26.0839669,58.1904132 L19.4297521,58.1904132 L19.4297521,21.8099174 L26.0839669,21.8099174 L26.0839669,36.3183471 L60.5709091,36.2631405 L60.5709091,46.2995041 L60.5705785,46.2995041 Z" id="Shape" fill="#FFFFFF" sketch:type="MSShapeGroup"></path>
    </g>
</svg>