<?xml version="1.0" encoding="UTF-8" standalone="no"?>
<svg width="160px" height="47px" viewBox="0 0 160 47" version="1.1" xmlns="http://www.w3.org/2000/svg" xmlns:xlink="http://www.w3.org/1999/xlink" xmlns:sketch="http://www.bohemiancoding.com/sketch/ns">
    <title>Untitled</title>
    <description>Created with Sketch (http://www.bohemiancoding.com/sketch)</description>
    <defs></defs>
    <g id="Page-1" stroke="none" stroke-width="1" fill="none" fill-rule="evenodd" sketch:type="MSPage">
        <path d="M0,0.53 L4.978,0.53 L4.978,11.385 L13.67,11.385 L13.67,0.53 L18.648,0.53 L18.648,27.749 L13.67,27.749 L13.67,15.914 L4.978,15.914 L4.978,27.748 L0,27.748 L0,0.53 L0,0.53 Z M47.131,18.894 C47.131,24.117 42.969,28.28 37.827,28.28 C32.481,28.28 28.482,24.281 28.482,18.894 L28.482,0.53 L33.46,0.53 L33.46,19.546 C33.46,21.913 35.337,23.749 37.786,23.749 C40.275,23.749 42.153,21.913 42.153,19.546 L42.153,0.53 L47.131,0.53 L47.131,18.894 L47.131,18.894 Z M56.883,0.53 L62.678,0.53 L71.002,18.812 L71.002,0.53 L75.532,0.53 L75.532,27.749 L69.656,27.749 L61.412,9.875 L61.412,27.749 L56.882,27.749 L56.882,0.53 L56.883,0.53 Z M103.729,18.853 C103.729,24.199 99.689,28.28 94.425,28.28 C89.079,28.28 85.08,24.24 85.08,18.853 L85.08,9.385 C85.081,4.122 89.242,3.55271368e-15 94.548,3.55271368e-15 C98.955,3.55271368e-15 102.301,2.652 103.363,6.937 L98.425,6.937 C97.65,5.345 96.303,4.529 94.467,4.529 C91.855,4.529 90.06,6.202 90.06,8.691 L90.06,19.505 C90.06,20.688 90.305,21.423 91.039,22.158 C91.978,23.178 93.243,23.749 94.548,23.749 C96.956,23.749 98.751,21.913 98.751,19.505 L98.751,15.873 L94.548,15.873 L94.548,11.343 L103.73,11.343 L103.73,18.853 L103.729,18.853 Z M119.439,11.589 L122.336,11.589 C124.254,11.589 125.601,10.202 125.601,8.283 C125.601,6.202 123.927,4.529 121.806,4.529 C119.929,4.529 118.46,5.875 118.174,7.835 L112.91,7.835 C113.073,3.101 116.542,3.55271368e-15 121.724,3.55271368e-15 C124.581,3.55271368e-15 126.947,0.897 128.457,2.571 C129.845,3.999 130.579,5.876 130.579,7.713 C130.579,9.835 129.762,11.59 127.885,13.467 C129.885,15.181 130.987,17.466 130.987,19.955 C130.987,24.811 127.029,28.28 121.56,28.28 C116.051,28.28 112.378,24.974 112.297,19.955 L117.439,19.955 C118.01,22.363 119.52,23.75 121.724,23.75 C124.091,23.75 126.009,21.873 126.009,19.506 C126.009,17.506 124.621,16.119 122.622,16.119 L119.439,16.119 L119.439,11.589 L119.439,11.589 Z M140.576,0.53 L152.369,0.53 C153.92,0.53 155.879,1.346 157.103,2.53 C158.45,3.836 159.225,5.713 159.225,7.753 L159.225,8.773 C159.225,12.242 157.347,14.772 153.961,15.874 L160,27.749 L154.451,27.749 L148.493,15.874 L145.555,15.874 L145.555,27.749 L140.577,27.749 L140.577,0.53 L140.576,0.53 Z M151.675,11.344 C153.185,11.344 154.246,10.324 154.246,8.773 L154.246,7.753 C154.246,6.202 153.225,5.059 151.797,5.059 L145.553,5.059 L145.553,11.343 L151.675,11.343 L151.675,11.344 Z M0.4,40.881 C0.4,39.176 1.735,37.742 3.354,37.742 C4.59,37.742 5.669,38.551 5.669,39.432 C5.669,39.801 5.399,40.142 5.001,40.142 C4.774,40.142 4.49,40 4.49,39.602 C4.49,39.403 4.604,39.233 4.831,39.119 C4.647,38.65 3.95,38.394 3.354,38.394 C2.374,38.394 1.167,39.246 1.167,40.894 C1.167,42.257 2.119,43.266 3.61,43.266 C4.263,43.266 4.874,43.053 5.542,42.598 L5.471,43.337 C4.889,43.763 4.051,43.934 3.511,43.934 C1.721,43.936 0.4,42.572 0.4,40.881 L0.4,40.881 Z M11.21,38.424 C11.21,38.751 10.954,39.035 10.627,39.035 C10.314,39.035 10.073,38.808 9.988,38.552 C9.519,38.68 8.965,39.248 8.653,39.873 L8.653,43.168 L9.818,43.168 L9.818,43.822 L6.934,43.822 L6.934,43.168 L7.928,43.168 L7.928,38.509 L6.934,38.509 L6.934,37.855 L8.624,37.855 L8.624,39.204 C9.05,38.38 9.817,37.741 10.4,37.741 C10.926,37.742 11.21,38.069 11.21,38.424 L11.21,38.424 Z M12.588,41.009 C12.702,42.515 13.611,43.268 15.045,43.268 C15.869,43.268 16.394,43.012 17.105,42.6 L17.034,43.339 C16.423,43.736 15.656,43.936 14.946,43.936 C13.057,43.936 11.821,42.657 11.821,40.853 C11.821,39.219 12.901,37.742 14.705,37.742 C16.424,37.742 17.361,39.092 17.361,40.54 C17.361,40.753 17.347,40.881 17.319,41.008 L12.588,41.008 L12.588,41.009 Z M12.603,40.37 L16.623,40.37 C16.538,39.205 15.884,38.396 14.634,38.396 C13.597,38.396 12.745,39.162 12.603,40.37 L12.603,40.37 Z M18.469,42.202 C18.469,41.123 19.435,40.398 20.728,40.398 C21.382,40.398 22.262,40.611 22.546,40.739 L22.546,39.745 C22.546,39.405 22.447,39.106 22.262,38.893 C21.992,38.595 21.538,38.396 20.898,38.396 C20.33,38.396 20.046,38.552 19.818,38.709 C19.875,38.822 19.918,38.936 19.918,39.093 C19.918,39.391 19.705,39.633 19.378,39.633 C19.037,39.633 18.824,39.377 18.824,39.065 C18.824,38.397 19.634,37.744 20.983,37.744 C21.792,37.744 22.418,37.985 22.801,38.398 C23.099,38.711 23.241,39.123 23.241,39.577 L23.241,43.171 L24.235,43.171 L24.235,43.825 L22.573,43.825 L22.573,43.016 C22.076,43.527 21.281,43.939 20.471,43.939 C19.265,43.936 18.469,43.197 18.469,42.202 L18.469,42.202 Z M22.546,42.316 L22.546,41.307 C22.063,41.151 21.396,41.009 20.756,41.009 C19.705,41.009 19.194,41.521 19.194,42.159 C19.194,42.798 19.677,43.296 20.614,43.296 C21.424,43.296 22.092,42.841 22.546,42.316 L22.546,42.316 Z M26.154,43.282 C26.055,43.083 26.012,42.799 26.012,42.515 L26.012,38.51 L24.932,38.51 L24.932,37.856 L26.012,37.856 L26.012,36.308 L26.736,36.052 L26.736,37.856 L28.583,37.856 L28.583,38.51 L26.736,38.51 L26.736,42.445 C26.736,42.644 26.764,42.8 26.821,42.928 C26.935,43.141 27.162,43.241 27.56,43.241 C27.901,43.241 28.327,43.057 28.654,42.857 L28.54,43.61 C28.27,43.752 27.887,43.937 27.333,43.937 C26.751,43.936 26.353,43.708 26.154,43.282 L26.154,43.282 Z M30.558,41.009 C30.672,42.515 31.581,43.268 33.015,43.268 C33.839,43.268 34.364,43.012 35.075,42.6 L35.004,43.339 C34.393,43.736 33.626,43.936 32.916,43.936 C31.027,43.936 29.791,42.657 29.791,40.853 C29.791,39.219 30.871,37.742 32.675,37.742 C34.394,37.742 35.331,39.092 35.331,40.54 C35.331,40.753 35.317,40.881 35.289,41.008 L30.558,41.008 L30.558,41.009 Z M30.572,40.37 L34.592,40.37 C34.507,39.205 33.853,38.396 32.603,38.396 C31.567,38.396 30.714,39.162 30.572,40.37 L30.572,40.37 Z M39.92,42.202 C39.92,41.123 40.886,40.398 42.179,40.398 C42.833,40.398 43.713,40.611 43.997,40.739 L43.997,39.745 C43.997,39.405 43.898,39.106 43.713,38.893 C43.443,38.595 42.989,38.396 42.349,38.396 C41.781,38.396 41.497,38.552 41.269,38.709 C41.326,38.822 41.369,38.936 41.369,39.093 C41.369,39.391 41.156,39.633 40.829,39.633 C40.488,39.633 40.275,39.377 40.275,39.065 C40.275,38.397 41.085,37.744 42.434,37.744 C43.243,37.744 43.869,37.985 44.252,38.398 C44.55,38.711 44.692,39.123 44.692,39.577 L44.692,43.171 L45.686,43.171 L45.686,43.825 L44.024,43.825 L44.024,43.016 C43.527,43.527 42.732,43.939 41.922,43.939 C40.715,43.936 39.92,43.197 39.92,42.202 L39.92,42.202 Z M43.996,42.316 L43.996,41.307 C43.513,41.151 42.846,41.009 42.206,41.009 C41.155,41.009 40.644,41.521 40.644,42.159 C40.644,42.798 41.127,43.296 42.064,43.296 C42.874,43.296 43.542,42.841 43.996,42.316 L43.996,42.316 Z M48.443,39.035 C48.997,38.325 49.906,37.742 50.744,37.742 C51.554,37.742 52.065,38.026 52.349,38.509 C52.548,38.849 52.633,39.276 52.633,39.773 L52.633,43.168 L53.627,43.168 L53.627,43.822 L50.914,43.822 L50.914,43.168 L51.908,43.168 L51.908,39.873 C51.908,39.518 51.865,39.234 51.752,39.007 C51.553,38.609 51.184,38.425 50.63,38.425 C49.778,38.425 49.025,38.965 48.471,39.647 L48.471,43.17 L49.465,43.17 L49.465,43.824 L46.752,43.824 L46.752,43.17 L47.746,43.17 L47.746,38.511 L46.752,38.511 L46.752,37.857 L48.442,37.857 L48.442,39.035 L48.443,39.035 Z M58.017,42.202 C58.017,41.123 58.983,40.398 60.276,40.398 C60.929,40.398 61.81,40.611 62.094,40.739 L62.094,39.745 C62.094,39.405 61.994,39.106 61.81,38.893 C61.54,38.595 61.086,38.396 60.446,38.396 C59.878,38.396 59.594,38.552 59.367,38.709 C59.424,38.822 59.466,38.936 59.466,39.093 C59.466,39.391 59.253,39.633 58.926,39.633 C58.585,39.633 58.372,39.377 58.372,39.065 C58.372,38.397 59.182,37.744 60.531,37.744 C61.34,37.744 61.966,37.985 62.349,38.398 C62.647,38.711 62.789,39.123 62.789,39.577 L62.789,43.171 L63.783,43.171 L63.783,43.825 L62.121,43.825 L62.121,43.016 C61.624,43.527 60.829,43.939 60.019,43.939 C58.813,43.936 58.017,43.197 58.017,42.202 L58.017,42.202 Z M62.094,42.316 L62.094,41.307 C61.611,41.151 60.943,41.009 60.304,41.009 C59.253,41.009 58.742,41.521 58.742,42.159 C58.742,42.798 59.225,43.296 60.162,43.296 C60.972,43.296 61.639,42.841 62.094,42.316 L62.094,42.316 Z M64.537,45.952 L65.531,45.952 L65.531,38.509 L64.537,38.509 L64.537,37.855 L66.227,37.855 L66.227,38.778 C66.752,38.153 67.406,37.741 68.343,37.741 C69.92,37.741 71.212,38.948 71.212,40.795 C71.212,42.471 70.075,43.934 68.201,43.934 C67.476,43.934 66.766,43.65 66.255,43.195 L66.255,45.951 L67.491,45.951 L67.491,46.605 L64.537,46.605 L64.537,45.952 L64.537,45.952 Z M70.447,40.81 C70.461,39.39 69.552,38.395 68.302,38.395 C67.436,38.395 66.782,38.821 66.257,39.404 L66.257,42.543 C66.74,42.969 67.351,43.282 68.231,43.282 C69.566,43.282 70.432,42.188 70.447,40.81 L70.447,40.81 Z M72.393,45.952 L73.387,45.952 L73.387,38.509 L72.393,38.509 L72.393,37.855 L74.083,37.855 L74.083,38.778 C74.608,38.153 75.262,37.741 76.199,37.741 C77.776,37.741 79.068,38.948 79.068,40.795 C79.068,42.471 77.931,43.934 76.057,43.934 C75.332,43.934 74.622,43.65 74.111,43.195 L74.111,45.951 L75.347,45.951 L75.347,46.605 L72.393,46.605 L72.393,45.952 L72.393,45.952 Z M78.302,40.81 C78.316,39.39 77.407,38.395 76.157,38.395 C75.291,38.395 74.637,38.821 74.112,39.404 L74.112,42.543 C74.595,42.969 75.206,43.282 76.086,43.282 C77.422,43.282 78.288,42.188 78.302,40.81 L78.302,40.81 Z M81.172,41.009 C81.286,42.515 82.195,43.268 83.629,43.268 C84.453,43.268 84.978,43.012 85.689,42.6 L85.618,43.339 C85.007,43.736 84.24,43.936 83.53,43.936 C81.641,43.936 80.405,42.657 80.405,40.853 C80.405,39.219 81.485,37.742 83.289,37.742 C85.008,37.742 85.945,39.092 85.945,40.54 C85.945,40.753 85.931,40.881 85.902,41.008 L81.172,41.008 L81.172,41.009 Z M81.186,40.37 L85.206,40.37 C85.121,39.205 84.467,38.396 83.217,38.396 C82.181,38.396 81.328,39.162 81.186,40.37 L81.186,40.37 Z M88.062,43.282 C87.962,43.083 87.92,42.799 87.92,42.515 L87.92,38.51 L86.84,38.51 L86.84,37.856 L87.92,37.856 L87.92,36.308 L88.644,36.052 L88.644,37.856 L90.491,37.856 L90.491,38.51 L88.644,38.51 L88.644,42.445 C88.644,42.644 88.672,42.8 88.729,42.928 C88.843,43.141 89.07,43.241 89.467,43.241 C89.808,43.241 90.234,43.057 90.561,42.857 L90.447,43.61 C90.177,43.752 89.793,43.937 89.24,43.937 C88.659,43.936 88.261,43.708 88.062,43.282 L88.062,43.282 Z M91.755,43.168 L92.806,43.168 L92.806,38.509 L91.755,38.509 L91.755,37.855 L93.531,37.855 L93.531,43.167 L94.596,43.167 L94.596,43.821 L91.755,43.821 L91.755,43.168 L91.755,43.168 Z M92.38,35.356 C92.38,34.987 92.678,34.674 93.047,34.674 C93.402,34.674 93.701,34.987 93.701,35.356 C93.701,35.725 93.403,36.038 93.047,36.038 C92.679,36.038 92.38,35.725 92.38,35.356 L92.38,35.356 Z M96.585,43.282 C96.485,43.083 96.443,42.799 96.443,42.515 L96.443,38.51 L95.363,38.51 L95.363,37.856 L96.443,37.856 L96.443,36.308 L97.167,36.052 L97.167,37.856 L99.014,37.856 L99.014,38.51 L97.167,38.51 L97.167,42.445 C97.167,42.644 97.195,42.8 97.252,42.928 C97.366,43.141 97.593,43.241 97.99,43.241 C98.331,43.241 98.757,43.057 99.084,42.857 L98.97,43.61 C98.7,43.752 98.316,43.937 97.763,43.937 C97.181,43.936 96.784,43.708 96.585,43.282 L96.585,43.282 Z M100.988,41.009 C101.102,42.515 102.011,43.268 103.445,43.268 C104.269,43.268 104.795,43.012 105.505,42.6 L105.434,43.339 C104.823,43.736 104.056,43.936 103.346,43.936 C101.457,43.936 100.221,42.657 100.221,40.853 C100.221,39.219 101.3,37.742 103.104,37.742 C104.823,37.742 105.761,39.092 105.761,40.54 C105.761,40.753 105.747,40.881 105.718,41.008 L100.988,41.008 L100.988,41.009 Z M101.002,40.37 L105.022,40.37 C104.937,39.205 104.284,38.396 103.034,38.396 C101.997,38.396 101.145,39.162 101.002,40.37 L101.002,40.37 Z M112.949,33.992 C112.736,34.02 112.551,34.106 112.409,34.277 C112.182,34.533 112.054,34.944 112.054,35.541 L112.054,37.857 L113.602,37.857 L113.602,38.511 L112.054,38.511 L112.054,43.17 L113.219,43.17 L113.219,43.824 L110.336,43.824 L110.336,43.17 L111.33,43.17 L111.33,38.511 L110.251,38.511 L110.251,37.857 L111.33,37.857 L111.33,35.769 C111.33,34.86 111.487,34.235 111.899,33.823 C112.212,33.51 112.58,33.312 113.135,33.312 C113.717,33.312 114.129,33.568 114.129,34.022 C114.129,34.349 113.902,34.576 113.604,34.576 C113.248,34.575 113.035,34.333 112.949,33.992 L112.949,33.992 Z M114.484,40.839 C114.484,39.12 115.706,37.742 117.51,37.742 C119.314,37.742 120.536,39.12 120.536,40.839 C120.536,42.558 119.314,43.936 117.51,43.936 C115.706,43.936 114.484,42.557 114.484,40.839 L114.484,40.839 Z M119.768,40.839 C119.768,39.419 118.845,38.396 117.51,38.396 C116.175,38.396 115.251,39.419 115.251,40.839 C115.251,42.274 116.174,43.282 117.51,43.282 C118.845,43.282 119.768,42.273 119.768,40.839 L119.768,40.839 Z M126.132,38.424 C126.132,38.751 125.876,39.035 125.55,39.035 C125.237,39.035 124.996,38.808 124.911,38.552 C124.442,38.68 123.888,39.248 123.576,39.873 L123.576,43.168 L124.741,43.168 L124.741,43.822 L121.858,43.822 L121.858,43.168 L122.852,43.168 L122.852,38.509 L121.858,38.509 L121.858,37.855 L123.548,37.855 L123.548,39.204 C123.974,38.38 124.741,37.741 125.324,37.741 C125.848,37.742 126.132,38.069 126.132,38.424 L126.132,38.424 Z M135.948,44.106 C135.948,44.859 135.749,45.413 135.408,45.81 C134.882,46.435 134.016,46.663 133.106,46.663 C132.211,46.663 131.558,46.393 131.231,46.066 C131.032,45.867 130.933,45.64 130.933,45.412 C130.933,45.014 131.203,44.744 131.572,44.744 C131.87,44.744 132.055,44.985 132.055,45.269 C132.055,45.426 131.998,45.582 131.884,45.738 C132.026,45.851 132.481,46.008 133.191,46.008 C133.816,46.008 134.441,45.851 134.838,45.383 C135.066,45.099 135.222,44.715 135.222,44.176 L135.222,42.87 C134.711,43.41 134.057,43.822 133.105,43.822 C131.514,43.822 130.207,42.558 130.207,40.825 C130.207,39.262 131.357,37.742 133.247,37.742 C134.056,37.742 134.738,38.055 135.25,38.551 L135.25,37.855 L136.941,37.855 L136.941,38.509 L135.947,38.509 L135.947,44.106 L135.948,44.106 Z M130.976,40.81 C130.976,42.145 131.885,43.168 133.149,43.168 C134.03,43.168 134.697,42.742 135.223,42.159 L135.223,39.162 C134.74,38.736 134.115,38.395 133.22,38.395 C131.871,38.396 130.976,39.518 130.976,40.81 L130.976,40.81 Z M138.093,40.839 C138.093,39.12 139.315,37.742 141.119,37.742 C142.923,37.742 144.145,39.12 144.145,40.839 C144.145,42.558 142.923,43.936 141.119,43.936 C139.315,43.936 138.093,42.557 138.093,40.839 L138.093,40.839 Z M143.377,40.839 C143.377,39.419 142.454,38.396 141.119,38.396 C139.784,38.396 138.86,39.419 138.86,40.839 C138.86,42.274 139.783,43.282 141.119,43.282 C142.454,43.282 143.377,42.273 143.377,40.839 L143.377,40.839 Z M145.509,40.839 C145.509,39.12 146.731,37.742 148.535,37.742 C150.339,37.742 151.561,39.12 151.561,40.839 C151.561,42.558 150.339,43.936 148.535,43.936 C146.73,43.936 145.509,42.557 145.509,40.839 L145.509,40.839 Z M150.792,40.839 C150.792,39.419 149.869,38.396 148.534,38.396 C147.199,38.396 146.275,39.419 146.275,40.839 C146.275,42.274 147.198,43.282 148.534,43.282 C149.869,43.282 150.792,42.273 150.792,40.839 L150.792,40.839 Z M152.924,40.881 C152.924,39.205 154.06,37.742 155.935,37.742 C156.659,37.742 157.355,38.012 157.881,38.509 L157.881,34.077 L156.645,34.077 L156.645,33.423 L158.606,33.423 L158.606,43.168 L159.6,43.168 L159.6,43.822 L157.909,43.822 L157.909,42.899 C157.384,43.524 156.73,43.936 155.792,43.936 C154.216,43.936 152.924,42.728 152.924,40.881 L152.924,40.881 Z M157.881,42.273 L157.881,39.162 C157.398,38.736 156.787,38.395 155.907,38.395 C154.572,38.395 153.705,39.489 153.691,40.867 C153.677,42.287 154.586,43.282 155.836,43.282 C156.702,43.282 157.355,42.856 157.881,42.273 L157.881,42.273 Z" id="Shape" fill="#FFFFFF" sketch:type="MSShapeGroup"></path>
    </g>
</svg>