<?xml version="1.0" encoding="UTF-8" standalone="no"?>
<svg width="561px" height="140px" viewBox="0 0 561 140" version="1.1" xmlns="http://www.w3.org/2000/svg" xmlns:xlink="http://www.w3.org/1999/xlink" xmlns:sketch="http://www.bohemiancoding.com/sketch/ns">
    <title>logo</title>
    <description>Created with Sketch (http://www.bohemiancoding.com/sketch)</description>
    <defs></defs>
    <g id="Page-1" stroke="none" stroke-width="1" fill="none" fill-rule="evenodd" sketch:type="MSPage">
        <g id="Shape-+-Shape-+-Shape" sketch:type="MSLayerGroup" transform="translate(1.000000, 0.000000)" fill="#FFFFFF">
            <path d="M-0.823781796,119.216495 C-0.823781796,113.175924 3.8730616,108.095467 9.56908367,108.095467 C13.9176218,108.095467 17.7137971,110.961638 17.7137971,114.082895 C17.7137971,115.39021 16.7638737,116.598324 15.3636163,116.598324 C14.564977,116.598324 13.5657983,116.095238 13.5657983,114.685181 C13.5657983,113.980152 13.9668771,113.377867 14.7655164,112.973981 C14.1181612,111.312381 11.6659516,110.40541 9.56908367,110.40541 C6.12121361,110.40541 1.87470426,113.423924 1.87470426,119.262552 C1.87470426,124.091467 5.22406375,127.66621 10.4697518,127.66621 C12.7671591,127.66621 14.9168005,126.911581 17.2669813,125.299581 L17.0171866,127.917752 C14.969574,129.42701 12.0212933,130.032838 10.1214465,130.032838 C3.82380631,130.039924 -0.823781796,125.207467 -0.823781796,119.216495 L-0.823781796,119.216495 Z M37.2083359,110.511695 C37.2083359,111.67021 36.3076678,112.676381 35.157205,112.676381 C34.0559975,112.676381 33.208103,111.872152 32.909053,110.965181 C31.2590009,111.418667 29.3098989,113.43101 28.2122096,115.645295 L28.2122096,127.31901 L32.3109531,127.31901 L32.3109531,129.636038 L22.1643641,129.636038 L22.1643641,127.31901 L25.6614894,127.31901 L25.6614894,110.812838 L22.1643641,110.812838 L22.1643641,108.49581 L28.1101808,108.49581 L28.1101808,113.275124 C29.6089488,110.35581 32.3074349,108.091924 34.3585657,108.091924 C36.2091572,108.095467 37.2083359,109.253981 37.2083359,110.511695 L37.2083359,110.511695 Z M42.0564634,119.669981 C42.4575421,125.005524 45.6556175,127.673295 50.7007662,127.673295 C53.5997916,127.673295 55.4468648,126.766324 57.9483298,125.306667 L57.6985351,127.924838 C55.5488937,129.331352 52.8504076,130.039924 50.3524609,130.039924 C43.7065155,130.039924 39.3579773,125.50861 39.3579773,119.117295 C39.3579773,113.328267 43.1576709,108.095467 49.5045663,108.095467 C55.5524119,108.095467 58.8489979,112.878324 58.8489979,118.008381 C58.8489979,118.76301 58.7997426,119.216495 58.701232,119.666438 L42.0564634,119.666438 L42.0564634,119.669981 Z M42.1092369,117.406095 L56.2525406,117.406095 C55.9534907,113.278667 53.6525651,110.412495 49.2547717,110.412495 C45.6063622,110.412495 42.6088262,113.126324 42.1092369,117.406095 L42.1092369,117.406095 Z M62.747202,123.89661 C62.747202,120.073867 66.1458167,117.505295 70.6948943,117.505295 C72.9958198,117.505295 76.0918664,118.259924 77.0910451,118.71341 L77.0910451,115.19181 C77.0910451,113.987238 76.7427398,112.927924 76.0918664,112.173295 C75.141943,111.117524 73.5446644,110.412495 71.2929942,110.412495 C69.2946368,110.412495 68.2954582,110.965181 67.4933006,111.52141 C67.69384,111.921752 67.8451241,112.325638 67.8451241,112.881867 C67.8451241,113.937638 67.0957401,114.79501 65.9452774,114.79501 C64.7455593,114.79501 63.9961753,113.888038 63.9961753,112.782667 C63.9961753,110.416038 66.8459454,108.102552 71.5920441,108.102552 C74.438296,108.102552 76.640711,108.956381 77.9881949,110.419581 C79.0366289,111.528495 79.5362182,112.988152 79.5362182,114.59661 L79.5362182,127.329638 L83.0333435,127.329638 L83.0333435,129.646667 L77.1860374,129.646667 L77.1860374,126.780495 C75.4374747,128.590895 72.6404781,130.050552 69.7907079,130.050552 C65.5477168,130.039924 62.747202,127.421752 62.747202,123.89661 L62.747202,123.89661 Z M77.0910451,124.300495 L77.0910451,120.725752 C75.3917377,120.173067 73.0450751,119.669981 70.7934048,119.669981 C67.0957401,119.669981 65.2979222,121.483924 65.2979222,123.744267 C65.2979222,126.008152 66.9972295,127.772495 70.2938155,127.772495 C73.1435857,127.772495 75.4937665,126.160495 77.0910451,124.300495 L77.0910451,124.300495 Z M89.784836,127.722895 C89.4365308,127.017867 89.2852467,126.011695 89.2852467,125.005524 L89.2852467,110.816381 L85.4855532,110.816381 L85.4855532,108.499352 L89.2852467,108.499352 L89.2852467,103.01501 L91.8324487,102.108038 L91.8324487,108.499352 L98.3306283,108.499352 L98.3306283,110.816381 L91.8324487,110.816381 L91.8324487,124.757524 C91.8324487,125.462552 91.9309592,126.015238 92.1314986,126.468724 C92.5325774,127.223352 93.3312167,127.577638 94.7314741,127.577638 C95.9311922,127.577638 97.4299602,126.925752 98.5804229,126.217181 L98.1793442,128.884952 C97.2294208,129.388038 95.8819369,130.043467 93.9328348,130.043467 C91.8852222,130.039924 90.4849648,129.232152 89.784836,127.722895 L89.784836,127.722895 Z M105.279142,119.669981 C105.680221,125.005524 108.878296,127.673295 113.923445,127.673295 C116.82247,127.673295 118.669543,126.766324 121.171008,125.306667 L120.921214,127.924838 C118.771572,129.331352 116.073086,130.039924 113.575139,130.039924 C106.929194,130.039924 102.580656,125.50861 102.580656,119.117295 C102.580656,113.328267 106.380349,108.095467 112.727245,108.095467 C118.77509,108.095467 122.071676,112.878324 122.071676,118.008381 C122.071676,118.76301 122.022421,119.216495 121.923911,119.666438 L105.279142,119.666438 L105.279142,119.669981 Z M105.328397,117.406095 L119.471701,117.406095 C119.172651,113.278667 116.871725,110.412495 112.473932,110.412495 C108.829041,110.412495 105.827987,113.126324 105.328397,117.406095 L105.328397,117.406095 Z M138.216856,123.89661 C138.216856,120.073867 141.61547,117.505295 146.164548,117.505295 C148.465473,117.505295 151.56152,118.259924 152.560699,118.71341 L152.560699,115.19181 C152.560699,113.987238 152.212394,112.927924 151.56152,112.173295 C150.611597,111.117524 149.014318,110.412495 146.762648,110.412495 C144.764291,110.412495 143.765112,110.965181 142.962954,111.52141 C143.163494,111.921752 143.314778,112.325638 143.314778,112.881867 C143.314778,113.937638 142.565394,114.79501 141.414931,114.79501 C140.215213,114.79501 139.465829,113.888038 139.465829,112.782667 C139.465829,110.416038 142.315599,108.102552 147.061698,108.102552 C149.90795,108.102552 152.110365,108.956381 153.457849,110.419581 C154.506283,111.528495 155.005872,112.988152 155.005872,114.59661 L155.005872,127.329638 L158.502997,127.329638 L158.502997,129.646667 L152.655691,129.646667 L152.655691,126.780495 C150.907128,128.590895 148.110132,130.050552 145.260362,130.050552 C141.013852,130.039924 138.216856,127.421752 138.216856,123.89661 L138.216856,123.89661 Z M152.557181,124.300495 L152.557181,120.725752 C150.857873,120.173067 148.511211,119.669981 146.25954,119.669981 C142.561876,119.669981 140.764058,121.483924 140.764058,123.744267 C140.764058,126.008152 142.463365,127.772495 145.759951,127.772495 C148.609721,127.772495 150.959902,126.160495 152.557181,124.300495 L152.557181,124.300495 Z M168.20277,112.676381 C170.151873,110.160952 173.349948,108.095467 176.298229,108.095467 C179.147999,108.095467 180.945817,109.101638 181.944995,110.812838 C182.645124,112.01741 182.944174,113.53021 182.944174,115.29101 L182.944174,127.31901 L186.441299,127.31901 L186.441299,129.636038 L176.896329,129.636038 L176.896329,127.31901 L180.393454,127.31901 L180.393454,115.645295 C180.393454,114.387581 180.24217,113.38141 179.844609,112.577181 C179.144481,111.167124 177.846252,110.515238 175.89715,110.515238 C172.899614,110.515238 170.250383,112.428381 168.301281,114.84461 L168.301281,127.326095 L171.798406,127.326095 L171.798406,129.643124 L162.253435,129.643124 L162.253435,127.326095 L165.750561,127.326095 L165.750561,110.819924 L162.253435,110.819924 L162.253435,108.502895 L168.199252,108.502895 L168.199252,112.676381 L168.20277,112.676381 Z M201.88635,123.89661 C201.88635,120.073867 205.284965,117.505295 209.834042,117.505295 C212.13145,117.505295 215.231014,118.259924 216.230193,118.71341 L216.230193,115.19181 C216.230193,113.987238 215.87837,112.927924 215.231014,112.173295 C214.281091,111.117524 212.683812,110.412495 210.432142,110.412495 C208.433785,110.412495 207.434606,110.965181 206.635967,111.52141 C206.836506,111.921752 206.984272,112.325638 206.984272,112.881867 C206.984272,113.937638 206.234888,114.79501 205.084425,114.79501 C203.884707,114.79501 203.135323,113.888038 203.135323,112.782667 C203.135323,110.416038 205.985093,108.102552 210.731192,108.102552 C213.577444,108.102552 215.779859,108.956381 217.127343,110.419581 C218.175777,111.528495 218.675366,112.988152 218.675366,114.59661 L218.675366,127.329638 L222.172492,127.329638 L222.172492,129.646667 L216.325185,129.646667 L216.325185,126.780495 C214.576623,128.590895 211.779626,130.050552 208.929856,130.050552 C204.686865,130.039924 201.88635,127.421752 201.88635,123.89661 L201.88635,123.89661 Z M216.230193,124.300495 L216.230193,120.725752 C214.530886,120.173067 212.180705,119.669981 209.932553,119.669981 C206.234888,119.669981 204.43707,121.483924 204.43707,123.744267 C204.43707,126.008152 206.136378,127.772495 209.432964,127.772495 C212.282734,127.772495 214.629396,126.160495 216.230193,124.300495 L216.230193,124.300495 Z M224.825241,137.182324 L228.322366,137.182324 L228.322366,110.812838 L224.825241,110.812838 L224.825241,108.49581 L230.771057,108.49581 L230.771057,111.765867 C232.618131,109.551581 234.919056,108.091924 238.215642,108.091924 C243.763898,108.091924 248.309458,112.368152 248.309458,118.91181 C248.309458,124.849638 244.309225,130.032838 237.716053,130.032838 C235.165333,130.032838 232.667386,129.026667 230.869568,127.414667 L230.869568,137.178781 L235.218106,137.178781 L235.218106,139.49581 L224.825241,139.49581 L224.825241,137.182324 L224.825241,137.182324 Z M245.618008,118.964952 C245.667263,113.934095 242.469188,110.408952 238.071394,110.408952 C235.024603,110.408952 232.723678,111.91821 230.876604,113.983695 L230.876604,125.104724 C232.575912,126.613981 234.725553,127.722895 237.8216,127.722895 C242.518443,127.722895 245.565234,123.84701 245.618008,118.964952 L245.618008,118.964952 Z M252.464493,137.182324 L255.961618,137.182324 L255.961618,110.812838 L252.464493,110.812838 L252.464493,108.49581 L258.41031,108.49581 L258.41031,111.765867 C260.257383,109.551581 262.558308,108.091924 265.854894,108.091924 C271.40315,108.091924 275.94871,112.368152 275.94871,118.91181 C275.94871,124.849638 271.948477,130.032838 265.355305,130.032838 C262.804585,130.032838 260.306638,129.026667 258.50882,127.414667 L258.50882,137.178781 L262.857358,137.178781 L262.857358,139.49581 L252.464493,139.49581 L252.464493,137.182324 L252.464493,137.182324 Z M273.253742,118.964952 C273.302997,113.934095 270.104922,110.408952 265.707128,110.408952 C262.660337,110.408952 260.359412,111.91821 258.512338,113.983695 L258.512338,125.104724 C260.211646,126.613981 262.361287,127.722895 265.457334,127.722895 C270.157695,127.722895 273.204487,123.84701 273.253742,118.964952 L273.253742,118.964952 Z M283.351076,119.669981 C283.752154,125.005524 286.95023,127.673295 291.995378,127.673295 C294.894404,127.673295 296.741477,126.766324 299.242942,125.306667 L298.993147,127.924838 C296.843506,129.331352 294.14502,130.039924 291.647073,130.039924 C285.001128,130.039924 280.65259,125.50861 280.65259,119.117295 C280.65259,113.328267 284.452283,108.095467 290.799179,108.095467 C296.847024,108.095467 300.14361,112.878324 300.14361,118.008381 C300.14361,118.76301 300.094355,119.216495 299.992326,119.666438 L283.351076,119.666438 L283.351076,119.669981 Z M283.400331,117.406095 L297.543635,117.406095 C297.244585,113.278667 294.943659,110.412495 290.545866,110.412495 C286.900975,110.412495 283.89992,113.126324 283.400331,117.406095 L283.400331,117.406095 Z M307.591713,127.722895 C307.23989,127.017867 307.092124,126.011695 307.092124,125.005524 L307.092124,110.816381 L303.29243,110.816381 L303.29243,108.499352 L307.092124,108.499352 L307.092124,103.01501 L309.639326,102.108038 L309.639326,108.499352 L316.137505,108.499352 L316.137505,110.816381 L309.639326,110.816381 L309.639326,124.757524 C309.639326,125.462552 309.737836,126.015238 309.938376,126.468724 C310.339454,127.223352 311.138094,127.577638 312.534833,127.577638 C313.734551,127.577638 315.233319,126.925752 316.383782,126.217181 L315.982703,128.884952 C315.03278,129.388038 313.681778,130.043467 311.736194,130.043467 C309.692099,130.039924 308.291842,129.232152 307.591713,127.722895 L307.591713,127.722895 Z M320.584554,127.31901 L324.282219,127.31901 L324.282219,110.812838 L320.584554,110.812838 L320.584554,108.49581 L326.832939,108.49581 L326.832939,127.315467 L330.579859,127.315467 L330.579859,129.632495 L320.584554,129.632495 L320.584554,127.31901 L320.584554,127.31901 Z M322.783451,99.6422095 C322.783451,98.3348952 323.831885,97.225981 325.130113,97.225981 C326.379087,97.225981 327.431039,98.3348952 327.431039,99.6422095 C327.431039,100.949524 326.382605,102.058438 325.130113,102.058438 C323.835403,102.058438 322.783451,100.949524 322.783451,99.6422095 L322.783451,99.6422095 Z M337.577628,127.722895 C337.225804,127.017867 337.078039,126.011695 337.078039,125.005524 L337.078039,110.816381 L333.278345,110.816381 L333.278345,108.499352 L337.078039,108.499352 L337.078039,103.01501 L339.625241,102.108038 L339.625241,108.499352 L346.12342,108.499352 L346.12342,110.816381 L339.625241,110.816381 L339.625241,124.757524 C339.625241,125.462552 339.723751,126.015238 339.924291,126.468724 C340.325369,127.223352 341.124009,127.577638 342.520748,127.577638 C343.720466,127.577638 345.219234,126.925752 346.369697,126.217181 L345.968618,128.884952 C345.018694,129.388038 343.667692,130.043467 341.722108,130.043467 C339.674496,130.039924 338.277757,129.232152 337.577628,127.722895 L337.577628,127.722895 Z M353.068416,119.669981 C353.469494,125.005524 356.66757,127.673295 361.712718,127.673295 C364.611744,127.673295 366.462335,126.766324 368.960282,125.306667 L368.710487,127.924838 C366.560846,129.331352 363.86236,130.039924 361.364413,130.039924 C354.718468,130.039924 350.36993,125.50861 350.36993,119.117295 C350.36993,113.328267 354.166105,108.095467 360.513,108.095467 C366.560846,108.095467 369.86095,112.878324 369.86095,118.008381 C369.86095,118.76301 369.811695,119.216495 369.709666,119.666438 L353.068416,119.666438 L353.068416,119.669981 Z M353.117671,117.406095 L367.260975,117.406095 C366.961925,113.278667 364.664517,110.412495 360.266724,110.412495 C356.618314,110.412495 353.620778,113.126324 353.117671,117.406095 L353.117671,117.406095 Z M395.150021,94.8097524 C394.400637,94.9089524 393.749764,95.2136381 393.250175,95.8194667 C392.451535,96.7264381 392.001201,98.1825524 392.001201,100.297638 L392.001201,108.502895 L397.447429,108.502895 L397.447429,110.819924 L392.001201,110.819924 L392.001201,127.326095 L396.099945,127.326095 L396.099945,129.643124 L385.956874,129.643124 L385.956874,127.326095 L389.453999,127.326095 L389.453999,110.819924 L385.657824,110.819924 L385.657824,108.502895 L389.453999,108.502895 L389.453999,101.10541 C389.453999,97.8849524 390.006362,95.6706667 391.455875,94.2110095 C392.557082,93.1020952 393.851793,92.4006095 395.804413,92.4006095 C397.852026,92.4006095 399.301538,93.307581 399.301538,94.9160381 C399.301538,96.0745524 398.502899,96.878781 397.454465,96.878781 C396.201974,96.8752381 395.45259,96.0178667 395.150021,94.8097524 L395.150021,94.8097524 Z M400.550512,119.067695 C400.550512,112.977524 404.849795,108.095467 411.19669,108.095467 C417.543586,108.095467 421.842869,112.977524 421.842869,119.067695 C421.842869,125.157867 417.543586,130.039924 411.19669,130.039924 C404.849795,130.039924 400.550512,125.154324 400.550512,119.067695 L400.550512,119.067695 Z M419.140864,119.067695 C419.140864,114.036838 415.893534,110.412495 411.19669,110.412495 C406.499847,110.412495 403.248998,114.036838 403.248998,119.067695 C403.248998,124.151695 406.496329,127.722895 411.19669,127.722895 C415.893534,127.722895 419.140864,124.148152 419.140864,119.067695 L419.140864,119.067695 Z M441.53091,110.511695 C441.53091,111.67021 440.630242,112.676381 439.483298,112.676381 C438.38209,112.676381 437.534196,111.872152 437.235146,110.965181 C435.585093,111.418667 433.635991,113.43101 432.538302,115.645295 L432.538302,127.31901 L436.637046,127.31901 L436.637046,129.636038 L426.493975,129.636038 L426.493975,127.31901 L429.9911,127.31901 L429.9911,110.812838 L426.493975,110.812838 L426.493975,108.49581 L432.439792,108.49581 L432.439792,113.275124 C433.93856,110.35581 436.637046,108.091924 438.688177,108.091924 C440.531732,108.095467 441.53091,109.253981 441.53091,110.511695 L441.53091,110.511695 Z M476.065903,130.64221 C476.065903,133.309981 475.365774,135.272724 474.166056,136.679238 C472.315464,138.893524 469.268673,139.701295 466.067079,139.701295 C462.918259,139.701295 460.620852,138.744724 459.470389,137.58621 C458.77026,136.881181 458.421955,136.076952 458.421955,135.269181 C458.421955,133.859124 459.371879,132.902552 460.670107,132.902552 C461.718541,132.902552 462.369415,133.756381 462.369415,134.762552 C462.369415,135.318781 462.168875,135.871467 461.767797,136.424152 C462.267386,136.824495 463.868183,137.380724 466.366129,137.380724 C468.565026,137.380724 470.763923,136.824495 472.160662,135.166438 C472.962819,134.160267 473.511664,132.79981 473.511664,130.89021 L473.511664,126.263238 C471.713846,128.176381 469.412921,129.636038 466.063561,129.636038 C460.46605,129.636038 455.867717,125.157867 455.867717,119.018095 C455.867717,113.48061 459.913687,108.095467 466.56315,108.095467 C469.409402,108.095467 471.808838,109.204381 473.610175,110.961638 L473.610175,108.49581 L479.55951,108.49581 L479.55951,110.812838 L476.062384,110.812838 L476.062384,130.64221 L476.065903,130.64221 Z M458.573239,118.964952 C458.573239,123.694667 461.771315,127.31901 466.218363,127.31901 C469.317928,127.31901 471.664591,125.809752 473.515182,123.744267 L473.515182,113.126324 C471.815875,111.617067 469.616978,110.408952 466.468158,110.408952 C461.722059,110.412495 458.573239,114.387581 458.573239,118.964952 L458.573239,118.964952 Z M483.612516,119.067695 C483.612516,112.977524 487.911799,108.095467 494.258694,108.095467 C500.60559,108.095467 504.904873,112.977524 504.904873,119.067695 C504.904873,125.157867 500.60559,130.039924 494.258694,130.039924 C487.911799,130.039924 483.612516,125.154324 483.612516,119.067695 L483.612516,119.067695 Z M502.202869,119.067695 C502.202869,114.036838 498.955538,110.412495 494.258694,110.412495 C489.561851,110.412495 486.311002,114.036838 486.311002,119.067695 C486.311002,124.151695 489.558333,127.722895 494.258694,127.722895 C498.955538,127.722895 502.202869,124.148152 502.202869,119.067695 L502.202869,119.067695 Z M509.703745,119.067695 C509.703745,112.977524 514.003028,108.095467 520.349923,108.095467 C526.696819,108.095467 530.996102,112.977524 530.996102,119.067695 C530.996102,125.157867 526.696819,130.039924 520.349923,130.039924 C513.99951,130.039924 509.703745,125.154324 509.703745,119.067695 L509.703745,119.067695 Z M528.290579,119.067695 C528.290579,114.036838 525.043249,110.412495 520.346405,110.412495 C515.649562,110.412495 512.398713,114.036838 512.398713,119.067695 C512.398713,124.151695 515.646044,127.722895 520.346405,127.722895 C525.043249,127.722895 528.290579,124.148152 528.290579,119.067695 L528.290579,119.067695 Z M535.791456,119.216495 C535.791456,113.278667 539.78817,108.095467 546.384861,108.095467 C548.932063,108.095467 551.380754,109.052038 553.231345,110.812838 L553.231345,95.1108952 L548.882807,95.1108952 L548.882807,92.7938667 L555.782066,92.7938667 L555.782066,127.31901 L559.279191,127.31901 L559.279191,129.636038 L553.329856,129.636038 L553.329856,126.365981 C551.482783,128.580267 549.181857,130.039924 545.881753,130.039924 C540.337015,130.039924 535.791456,125.760152 535.791456,119.216495 L535.791456,119.216495 Z M553.231345,124.148152 L553.231345,113.126324 C551.532038,111.617067 549.382397,110.408952 546.28635,110.408952 C541.589507,110.408952 538.539197,114.284838 538.489942,119.166895 C538.440686,124.197752 541.638762,127.722895 546.036555,127.722895 C549.083347,127.722895 551.380754,126.213638 553.231345,124.148152 L553.231345,124.148152 Z" id="Shape" sketch:type="MSShapeGroup"></path>
            <path d="M111,1.49151773 L124.955419,1.49151773 L124.955419,32.0394894 L149.322735,32.0394894 L149.322735,1.49151773 L163.278154,1.49151773 L163.278154,78.0908028 L149.322735,78.0908028 L149.322735,44.7849305 L124.955419,44.7849305 L124.955419,78.0879887 L111,78.0879887 L111,1.49151773 L111,1.49151773 Z M243.127932,53.1712 C243.127932,67.8696851 231.460103,79.5851348 217.044923,79.5851348 C202.057846,79.5851348 190.846974,68.3312113 190.846974,53.1712 L190.846974,1.49151773 L204.802393,1.49151773 L204.802393,55.0060482 C204.802393,61.6672227 210.06441,66.8340652 216.929983,66.8340652 C223.907692,66.8340652 229.172513,61.6672227 229.172513,55.0060482 L229.172513,1.49151773 L243.127932,1.49151773 L243.127932,53.1712 L243.127932,53.1712 Z M270.466872,1.49151773 L286.712684,1.49151773 L310.048342,52.9404369 L310.048342,1.49151773 L322.747829,1.49151773 L322.747829,78.0908028 L306.27494,78.0908028 L283.163556,27.7900709 L283.163556,78.0908028 L270.464068,78.0908028 L270.464068,1.49151773 L270.466872,1.49151773 Z M401.795829,53.0558184 C401.795829,68.1004482 390.470017,79.5851348 375.712821,79.5851348 C360.725744,79.5851348 349.514872,68.2158298 349.514872,53.0558184 L349.514872,26.4111206 C349.517675,11.6000681 361.182701,0 376.057641,0 C388.412308,0 397.792547,7.46321702 400.769778,19.5219972 L386.926496,19.5219972 C384.753846,15.0418156 380.977641,12.7454411 375.830564,12.7454411 C368.508034,12.7454411 363.475897,17.4535716 363.475897,24.4580766 L363.475897,54.8906667 C363.475897,58.2198468 364.162735,60.2882723 366.220444,62.3566979 C368.852855,65.227166 372.399179,66.8340652 376.057641,66.8340652 C382.808274,66.8340652 387.84041,61.6672227 387.84041,54.8906667 L387.84041,44.6695489 L376.057641,44.6695489 L376.057641,31.9212936 L401.798632,31.9212936 L401.798632,53.0558184 L401.795829,53.0558184 Z M445.837538,32.613583 L453.959043,32.613583 C459.336,32.613583 463.112205,28.7103092 463.112205,23.3098894 C463.112205,17.4535716 458.419282,12.7454411 452.473231,12.7454411 C447.211214,12.7454411 443.092991,16.5333333 442.291214,22.0491348 L427.534017,22.0491348 C427.990974,8.72678582 437.716034,0 452.24335,0 C460.252718,0 466.885607,2.5243234 471.118769,7.23526809 C475.009915,11.2539234 477.067624,16.5361475 477.067624,21.7058043 C477.067624,27.6775035 474.777231,32.6163972 469.515214,37.8986213 C475.122051,42.7221333 478.211419,49.1525447 478.211419,56.1570496 C478.211419,69.8227291 467.115487,79.5851348 451.78359,79.5851348 C436.339556,79.5851348 426.042598,70.2814411 425.815521,56.1570496 L440.230701,56.1570496 C441.831453,62.9336057 446.064615,66.8368794 452.24335,66.8368794 C458.879043,66.8368794 464.256,61.5546553 464.256,54.8934809 C464.256,49.2651121 460.364855,45.3618383 454.760821,45.3618383 L445.837538,45.3618383 L445.837538,32.613583 L445.837538,32.613583 Z M505.093402,1.49151773 L538.15412,1.49151773 C542.502222,1.49151773 547.99412,3.7878922 551.425504,7.11988652 C555.201709,10.7952113 557.374359,16.0774355 557.374359,21.8183716 L557.374359,24.6888397 C557.374359,34.4512454 552.109538,41.5711319 542.617162,44.6723631 L559.547009,78.0908028 L543.990838,78.0908028 L527.288068,44.6723631 L519.051624,44.6723631 L519.051624,78.0908028 L505.096205,78.0908028 L505.096205,1.49151773 L505.093402,1.49151773 Z M536.208547,31.9241078 C540.441709,31.9241078 543.416137,29.0536397 543.416137,24.6888397 L543.416137,21.8183716 C543.416137,17.4535716 540.553846,14.2369589 536.550564,14.2369589 L519.046017,14.2369589 L519.046017,31.9212936 L536.208547,31.9212936 L536.208547,31.9241078 Z" id="Shape" sketch:type="MSShapeGroup"></path>
            <path d="M0,0 L0,80 L80,80 L80,0 L0,0 L0,0 Z M35.6446281,33.6449587 C35.6446281,26.6095868 41.2072727,21.1008264 48.2981818,21.1008264 C54.1890909,21.1008264 58.661157,24.6456198 60.08,30.3732231 L53.4796694,30.3732231 C52.4436364,28.2459504 50.6436364,27.1550413 48.1887603,27.1550413 C44.6978512,27.1550413 42.298843,29.3910744 42.298843,32.7186777 L42.298843,34.854876 L35.6446281,34.854876 L35.6446281,33.6449587 L35.6446281,33.6449587 Z M60.5705785,46.2995041 C60.5705785,53.4442975 55.1702479,58.8991736 48.134876,58.8991736 C40.9894215,58.8991736 35.6446281,53.498843 35.6446281,46.2995041 L35.6446281,43.5801653 L42.298843,43.5801653 L42.298843,47.1722314 C42.298843,48.7533884 42.6261157,49.7355372 43.6076033,50.717686 C44.8624793,52.0809917 46.5530579,52.8442975 48.2985124,52.8442975 C51.5166942,52.8442975 53.9166942,50.3904132 53.9166942,47.1722314 L53.9166942,42.3180165 L48.2985124,42.3180165 L48.2985124,42.317686 L26.0839669,42.372562 L26.0839669,58.1904132 L19.4297521,58.1904132 L19.4297521,21.8099174 L26.0839669,21.8099174 L26.0839669,36.3183471 L60.5709091,36.2631405 L60.5709091,46.2995041 L60.5705785,46.2995041 Z" id="Shape" sketch:type="MSShapeGroup"></path>
        </g>
    </g>
</svg>