<svg xmlns="http://www.w3.org/2000/svg" viewBox="0 0 160 46.663" enable-background="new 0 0 160 46.663"><g fill="#fff"><path d="M0 .53h4.978v10.855h8.692v-10.855h4.978v27.219h-4.978v-11.835h-8.692v11.834h-4.978v-27.218zM47.131 18.894c0 5.223-4.162 9.386-9.304 9.386-5.346 0-9.345-3.999-9.345-9.386v-18.364h4.978v19.016c0 2.367 1.877 4.203 4.326 4.203 2.489 0 4.367-1.836 4.367-4.203v-19.016h4.978v18.364zM56.883.53h5.795l8.324 18.282v-18.282h4.53v27.219h-5.876l-8.244-17.874v17.874h-4.53v-27.219zM103.729 18.853c0 5.346-4.04 9.427-9.304 9.427-5.346 0-9.345-4.04-9.345-9.427v-9.468c.001-5.263 4.162-9.385 9.468-9.385 4.407 0 7.753 2.652 8.815 6.937h-4.938c-.775-1.592-2.122-2.408-3.958-2.408-2.612 0-4.407 1.673-4.407 4.162v10.814c0 1.183.245 1.918.979 2.653.939 1.02 2.204 1.591 3.509 1.591 2.408 0 4.203-1.836 4.203-4.244v-3.632h-4.203v-4.53h9.182v7.51zM119.439 11.589h2.897c1.918 0 3.265-1.387 3.265-3.306 0-2.081-1.674-3.754-3.795-3.754-1.877 0-3.346 1.346-3.632 3.306h-5.264c.163-4.734 3.632-7.835 8.814-7.835 2.857 0 5.223.897 6.733 2.571 1.388 1.428 2.122 3.305 2.122 5.142 0 2.122-.817 3.877-2.694 5.754 2 1.714 3.102 3.999 3.102 6.488 0 4.856-3.958 8.325-9.427 8.325-5.509 0-9.182-3.306-9.263-8.325h5.142c.571 2.408 2.081 3.795 4.285 3.795 2.367 0 4.285-1.877 4.285-4.244 0-2-1.388-3.387-3.387-3.387h-3.183v-4.53zM140.576.53h11.793c1.551 0 3.51.816 4.734 2 1.347 1.306 2.122 3.183 2.122 5.223v1.02c0 3.469-1.878 5.999-5.264 7.101l6.039 11.875h-5.549l-5.958-11.875h-2.938v11.875h-4.978v-27.219zm11.099 10.814c1.51 0 2.571-1.02 2.571-2.571v-1.02c0-1.551-1.021-2.694-2.449-2.694h-6.244v6.284h6.122zM.4 40.881c0-1.705 1.335-3.139 2.954-3.139 1.236 0 2.315.809 2.315 1.69 0 .369-.27.71-.668.71-.227 0-.511-.142-.511-.54 0-.199.114-.369.341-.483-.184-.469-.881-.725-1.477-.725-.98 0-2.187.852-2.187 2.5 0 1.363.952 2.372 2.443 2.372.653 0 1.264-.213 1.932-.668l-.071.739c-.582.426-1.42.597-1.96.597-1.79.002-3.111-1.362-3.111-3.053zM11.21 38.424c0 .327-.256.611-.583.611-.313 0-.554-.227-.639-.483-.469.128-1.023.696-1.335 1.321v3.295h1.165v.654h-2.884v-.654h.994v-4.659h-.994v-.654h1.69v1.349c.426-.824 1.193-1.463 1.776-1.463.526.001.81.328.81.683zM12.588 41.009c.114 1.506 1.023 2.259 2.457 2.259.824 0 1.349-.256 2.06-.668l-.071.739c-.611.397-1.378.597-2.088.597-1.889 0-3.125-1.279-3.125-3.083 0-1.634 1.08-3.111 2.884-3.111 1.719 0 2.656 1.35 2.656 2.798 0 .213-.014.341-.042.468h-4.731zm.015-.639h4.02c-.085-1.165-.739-1.974-1.989-1.974-1.037 0-1.889.766-2.031 1.974zM18.469 42.202c0-1.079.966-1.804 2.259-1.804.654 0 1.534.213 1.818.341v-.994c0-.34-.099-.639-.284-.852-.27-.298-.724-.497-1.364-.497-.568 0-.852.156-1.08.313.057.113.1.227.1.384 0 .298-.213.54-.54.54-.341 0-.554-.256-.554-.568 0-.668.81-1.321 2.159-1.321.809 0 1.435.241 1.818.654.298.313.44.725.44 1.179v3.594h.994v.654h-1.662v-.809c-.497.511-1.292.923-2.102.923-1.206-.003-2.002-.742-2.002-1.737zm4.077.114v-1.009c-.483-.156-1.15-.298-1.79-.298-1.051 0-1.562.512-1.562 1.15 0 .639.483 1.137 1.42 1.137.81 0 1.478-.455 1.932-.98zM26.154 43.282c-.099-.199-.142-.483-.142-.767v-4.005h-1.08v-.654h1.08v-1.548l.724-.256v1.804h1.847v.654h-1.847v3.935c0 .199.028.355.085.483.114.213.341.313.739.313.341 0 .767-.184 1.094-.384l-.114.753c-.27.142-.653.327-1.207.327-.582-.001-.98-.229-1.179-.655zM30.558 41.009c.114 1.506 1.023 2.259 2.457 2.259.824 0 1.349-.256 2.06-.668l-.071.739c-.611.397-1.378.597-2.088.597-1.889 0-3.125-1.279-3.125-3.083 0-1.634 1.08-3.111 2.884-3.111 1.719 0 2.656 1.35 2.656 2.798 0 .213-.014.341-.042.468h-4.731zm.014-.639h4.02c-.085-1.165-.739-1.974-1.989-1.974-1.036 0-1.889.766-2.031 1.974zM39.92 42.202c0-1.079.966-1.804 2.259-1.804.654 0 1.534.213 1.818.341v-.994c0-.34-.099-.639-.284-.852-.27-.298-.724-.497-1.364-.497-.568 0-.852.156-1.08.313.057.113.1.227.1.384 0 .298-.213.54-.54.54-.341 0-.554-.256-.554-.568 0-.668.81-1.321 2.159-1.321.809 0 1.435.241 1.818.654.298.313.44.725.44 1.179v3.594h.994v.654h-1.662v-.809c-.497.511-1.292.923-2.102.923-1.207-.003-2.002-.742-2.002-1.737zm4.076.114v-1.009c-.483-.156-1.15-.298-1.79-.298-1.051 0-1.562.512-1.562 1.15 0 .639.483 1.137 1.42 1.137.81 0 1.478-.455 1.932-.98zM48.443 39.035c.554-.71 1.463-1.293 2.301-1.293.81 0 1.321.284 1.605.767.199.34.284.767.284 1.264v3.395h.994v.654h-2.713v-.654h.994v-3.295c0-.355-.043-.639-.156-.866-.199-.398-.568-.582-1.122-.582-.852 0-1.605.54-2.159 1.222v3.523h.994v.654h-2.713v-.654h.994v-4.659h-.994v-.654h1.69v1.178zM58.017 42.202c0-1.079.966-1.804 2.259-1.804.653 0 1.534.213 1.818.341v-.994c0-.34-.1-.639-.284-.852-.27-.298-.724-.497-1.364-.497-.568 0-.852.156-1.079.313.057.113.099.227.099.384 0 .298-.213.54-.54.54-.341 0-.554-.256-.554-.568 0-.668.81-1.321 2.159-1.321.809 0 1.435.241 1.818.654.298.313.44.725.44 1.179v3.594h.994v.654h-1.662v-.809c-.497.511-1.292.923-2.102.923-1.206-.003-2.002-.742-2.002-1.737zm4.077.114v-1.009c-.483-.156-1.151-.298-1.79-.298-1.051 0-1.562.512-1.562 1.15 0 .639.483 1.137 1.42 1.137.81 0 1.477-.455 1.932-.98zM64.537 45.952h.994v-7.443h-.994v-.654h1.69v.923c.525-.625 1.179-1.037 2.116-1.037 1.577 0 2.869 1.207 2.869 3.054 0 1.676-1.137 3.139-3.011 3.139-.725 0-1.435-.284-1.946-.739v2.756h1.236v.654h-2.954v-.653zm5.91-5.142c.014-1.42-.895-2.415-2.145-2.415-.866 0-1.52.426-2.045 1.009v3.139c.483.426 1.094.739 1.974.739 1.335 0 2.201-1.094 2.216-2.472zM72.393 45.952h.994v-7.443h-.994v-.654h1.69v.923c.525-.625 1.179-1.037 2.116-1.037 1.577 0 2.869 1.207 2.869 3.054 0 1.676-1.137 3.139-3.011 3.139-.725 0-1.435-.284-1.946-.739v2.756h1.236v.654h-2.954v-.653zm5.909-5.142c.014-1.42-.895-2.415-2.145-2.415-.866 0-1.52.426-2.045 1.009v3.139c.483.426 1.094.739 1.974.739 1.336 0 2.202-1.094 2.216-2.472zM81.172 41.009c.114 1.506 1.023 2.259 2.457 2.259.824 0 1.349-.256 2.06-.668l-.071.739c-.611.397-1.378.597-2.088.597-1.889 0-3.125-1.279-3.125-3.083 0-1.634 1.08-3.111 2.884-3.111 1.719 0 2.656 1.35 2.656 2.798 0 .213-.014.341-.043.468h-4.73zm.014-.639h4.02c-.085-1.165-.739-1.974-1.989-1.974-1.036 0-1.889.766-2.031 1.974zM88.062 43.282c-.1-.199-.142-.483-.142-.767v-4.005h-1.08v-.654h1.08v-1.548l.724-.256v1.804h1.847v.654h-1.847v3.935c0 .199.028.355.085.483.114.213.341.313.738.313.341 0 .767-.184 1.094-.384l-.114.753c-.27.142-.654.327-1.207.327-.581-.001-.979-.229-1.178-.655zM91.755 43.168h1.051v-4.659h-1.051v-.654h1.776v5.312h1.065v.654h-2.841v-.653zm.625-7.812c0-.369.298-.682.667-.682.355 0 .654.313.654.682 0 .369-.298.682-.654.682-.368 0-.667-.313-.667-.682zM96.585 43.282c-.1-.199-.142-.483-.142-.767v-4.005h-1.08v-.654h1.08v-1.548l.724-.256v1.804h1.847v.654h-1.847v3.935c0 .199.028.355.085.483.114.213.341.313.738.313.341 0 .767-.184 1.094-.384l-.114.753c-.27.142-.654.327-1.207.327-.582-.001-.979-.229-1.178-.655zM100.988 41.009c.114 1.506 1.023 2.259 2.457 2.259.824 0 1.35-.256 2.06-.668l-.071.739c-.611.397-1.378.597-2.088.597-1.889 0-3.125-1.279-3.125-3.083 0-1.634 1.079-3.111 2.883-3.111 1.719 0 2.657 1.35 2.657 2.798 0 .213-.014.341-.043.468h-4.73zm.014-.639h4.02c-.085-1.165-.738-1.974-1.988-1.974-1.037 0-1.889.766-2.032 1.974zM112.949 33.992c-.213.028-.398.114-.54.285-.227.256-.355.667-.355 1.264v2.316h1.548v.654h-1.548v4.659h1.165v.654h-2.883v-.654h.994v-4.659h-1.079v-.654h1.079v-2.088c0-.909.157-1.534.569-1.946.313-.313.681-.511 1.236-.511.582 0 .994.256.994.71 0 .327-.227.554-.525.554-.356-.001-.569-.243-.655-.584zM114.484 40.839c0-1.719 1.222-3.097 3.026-3.097 1.804 0 3.026 1.378 3.026 3.097s-1.222 3.097-3.026 3.097c-1.804 0-3.026-1.379-3.026-3.097zm5.284 0c0-1.42-.923-2.443-2.258-2.443s-2.259 1.023-2.259 2.443c0 1.435.923 2.443 2.259 2.443 1.335 0 2.258-1.009 2.258-2.443zM126.132 38.424c0 .327-.256.611-.582.611-.313 0-.554-.227-.639-.483-.469.128-1.023.696-1.335 1.321v3.295h1.165v.654h-2.883v-.654h.994v-4.659h-.994v-.654h1.69v1.349c.426-.824 1.193-1.463 1.776-1.463.524.001.808.328.808.683zM135.948 44.106c0 .753-.199 1.307-.54 1.704-.526.625-1.392.853-2.302.853-.895 0-1.548-.27-1.875-.597-.199-.199-.298-.426-.298-.654 0-.398.27-.668.639-.668.298 0 .483.241.483.525 0 .157-.057.313-.171.469.142.113.597.27 1.307.27.625 0 1.25-.157 1.647-.625.228-.284.384-.668.384-1.207v-1.306c-.511.54-1.165.952-2.117.952-1.591 0-2.898-1.264-2.898-2.997 0-1.563 1.15-3.083 3.04-3.083.809 0 1.491.313 2.003.809v-.696h1.691v.654h-.994v5.597zm-4.972-3.296c0 1.335.909 2.358 2.173 2.358.881 0 1.548-.426 2.074-1.009v-2.997c-.483-.426-1.108-.767-2.003-.767-1.349.001-2.244 1.123-2.244 2.415zM138.093 40.839c0-1.719 1.222-3.097 3.026-3.097 1.804 0 3.026 1.378 3.026 3.097s-1.222 3.097-3.026 3.097c-1.804 0-3.026-1.379-3.026-3.097zm5.284 0c0-1.42-.923-2.443-2.258-2.443s-2.259 1.023-2.259 2.443c0 1.435.923 2.443 2.259 2.443 1.335 0 2.258-1.009 2.258-2.443zM145.509 40.839c0-1.719 1.222-3.097 3.026-3.097 1.804 0 3.026 1.378 3.026 3.097s-1.222 3.097-3.026 3.097c-1.805 0-3.026-1.379-3.026-3.097zm5.283 0c0-1.42-.923-2.443-2.258-2.443s-2.259 1.023-2.259 2.443c0 1.435.923 2.443 2.259 2.443 1.335 0 2.258-1.009 2.258-2.443zM152.924 40.881c0-1.676 1.136-3.139 3.011-3.139.724 0 1.42.27 1.946.767v-4.432h-1.236v-.654h1.961v9.745h.994v.654h-1.691v-.923c-.525.625-1.179 1.037-2.117 1.037-1.576 0-2.868-1.208-2.868-3.055zm4.957 1.392v-3.111c-.483-.426-1.094-.767-1.974-.767-1.335 0-2.202 1.094-2.216 2.472-.014 1.42.895 2.415 2.145 2.415.866 0 1.519-.426 2.045-1.009z"/></g></svg>